<?xml version="1.0" encoding="UTF-8"?>
<svg version="1.1" xmlns="http://www.w3.org/2000/svg" width="2481" height="1493">
<path d="M0 0 C4.55318334 2.85897559 6.05481449 4.65457341 7.32666016 10.04223633 C8.03498927 15.23489257 7.51284126 20.44947279 7.15472412 25.65737915 C6.99277705 28.04394236 6.84999374 30.4310611 6.71142578 32.8190918 C6.26272436 40.50616299 5.78448026 48.19126214 5.28955078 55.87548828 C3.16227779 89.23566734 2.40687854 122.45272449 2.4375 155.875 C2.43790031 156.82753788 2.43830063 157.78007576 2.43871307 158.76147842 C2.22466624 195.78212983 2.22466624 195.78212983 4.6875 232.6875 C16.25582576 232.95145335 27.55974398 232.16537229 39.0625 231 C39.94459137 230.91268616 40.82668274 230.82537231 41.73550415 230.7354126 C54.32807366 229.48180749 66.86307471 227.95974596 79.375 226.0625 C80.41355133 225.90655869 80.41355133 225.90655869 81.4730835 225.74746704 C87.74536849 224.79549267 93.69661947 223.82441038 99.6875 221.6875 C99.82201084 216.72180802 99.54181909 212.22224634 98.61962891 207.34765625 C92.22337447 173.5233955 99.69167935 138.78789824 118.94140625 110.2578125 C121.09009834 107.29807563 123.32845109 104.48194384 125.6875 101.6875 C126.51765625 100.69492187 127.3478125 99.70234375 128.203125 98.6796875 C147.05906829 76.81377697 174.09956753 63.21817166 202.6875 59.6875 C239.0525676 57.2791824 273.76761984 66.44560859 301.72460938 90.43554688 C303.81816467 92.28806145 305.88460796 94.16505532 307.9375 96.0625 C308.90429688 96.95509521 308.90429688 96.95509521 309.890625 97.86572266 C313.46410395 101.25725453 316.30364721 103.98267687 317.0234375 109.0546875 C317.11255472 114.77601297 316.75227993 118.31004469 312.6875 122.6875 C309.37879661 125.30825516 306.46886084 126.54280355 302.3125 127.3125 C295.38464395 126.11804206 290.54036695 121.54131375 285.5 116.875 C265.65176719 98.87789771 238.0117076 88.96368075 211.359375 89.4375 C186.55102754 91.12657898 166.87179305 102.42421159 150.22265625 120.33984375 C132.67736214 140.76436562 125.07183628 166.01109682 126.6875 192.6875 C127.49807042 199.77824122 128.93324019 206.77354126 130.6875 213.6875 C139.44672815 214.3687733 147.16253394 211.84861929 155.4375 209.3125 C156.95379349 208.8558261 158.47015193 208.39936776 159.98657227 207.94311523 C191.26506895 198.46510243 221.47296318 186.80356822 251.05859375 172.91601562 C253.42821255 171.80866776 255.80513578 170.72020086 258.1875 169.640625 C271.76256496 163.44823985 284.88232632 156.29711651 297.73828125 148.73046875 C298.53306885 148.26946777 299.32785645 147.8084668 300.14672852 147.33349609 C301.61598054 146.47822011 303.07703633 145.60861183 304.52709961 144.72119141 C309.71309108 141.71603691 314.66560164 140.52155262 320.6875 140.6875 C329.19764926 144.12429105 333.01149859 155.17002479 336.92211914 162.93237305 C344.98508313 178.91603733 354.01322217 192.99514189 366.6875 205.6875 C367.56019531 206.57179688 368.43289063 207.45609375 369.33203125 208.3671875 C387.10499419 225.48960275 407.96711606 230.39709446 432.0390625 229.984375 C467.16542899 228.76865395 501.98265029 210.91745455 532.22265625 194.515625 C537.09462489 191.94507108 541.20441185 190.96823559 546.6875 191.6875 C554.2815244 195.26115854 557.02335088 202.26838194 560.4375 209.5 C567.19315975 223.13164932 578.18155159 233.69475497 592.6875 238.6875 C601.13393641 240.92964151 609.5171218 241.0548352 618.20507812 241.16601562 C619.73745117 241.2056543 619.73745117 241.2056543 621.30078125 241.24609375 C622.21641846 241.25954834 623.13205566 241.27300293 624.07543945 241.28686523 C628.09732025 241.90373657 630.78060498 243.65104855 633.4375 246.6875 C636.00522875 250.795866 636.19604459 254.97190474 635.6875 259.6875 C633.90033447 263.82619913 631.43339634 266.21861378 627.6875 268.6875 C621.84120553 270.80517458 616.4350716 271.03705243 610.25 271 C609.28078613 270.99508545 608.31157227 270.9901709 607.31298828 270.98510742 C584.86488678 270.62375859 566.0251955 262.97588916 550.06542969 247.11767578 C544.96452634 241.82336469 540.60743659 235.89406628 536.6875 229.6875 C529.6144619 230.09143807 524.56290419 232.41581623 518.3125 235.625 C480.87092928 254.11207906 433.61623036 270.05957679 392 256.1875 C389.09730223 255.17613899 386.22696233 254.09841826 383.359375 252.9921875 C380.08918426 251.83022611 377.11920785 251.12445659 373.6875 250.6875 C373.24921875 251.41710937 372.8109375 252.14671875 372.359375 252.8984375 C348.21737332 292.64441588 319.55576367 326.56382021 272.7512207 338.24194336 C256.64725381 341.71878467 237.50660618 341.36559672 221.6875 336.6875 C219.87378906 336.15962891 219.87378906 336.15962891 218.0234375 335.62109375 C190.32232449 326.93223532 166.52907835 311.76284385 145.6875 291.6875 C144.55828125 290.65302734 144.55828125 290.65302734 143.40625 289.59765625 C133.11522066 279.88456516 124.79141493 267.84371431 117.2734375 255.91015625 C115.71710966 253.45076373 115.71710966 253.45076373 112.6875 251.6875 C105.45270498 252.07941739 98.30295026 253.55068053 91.16430664 254.75683594 C63.76579269 259.38032412 36.4135044 262.05500693 8.6875 263.6875 C9.24946411 272.23303 10.35212545 280.57469213 11.875 289 C12.09422119 290.21405518 12.31344238 291.42811035 12.53930664 292.67895508 C20.38730131 334.85193381 35.49184229 376.05312707 69.99609375 403.46875 C79.02444387 410.91156984 79.02444387 410.91156984 80.05859375 416.80078125 C80.2168761 422.04272037 79.36745244 425.10533987 76.171875 429.27734375 C73.01670679 432.27475355 69.90782496 433.05446602 65.625 433.25 C52.30743238 432.86347429 41.36011811 419.75997574 32.6875 410.6875 C28.70136748 406.25504376 25.11510843 401.56065294 21.6875 396.6875 C21.30045898 396.13803711 20.91341797 395.58857422 20.51464844 395.02246094 C-2.66501395 361.58456499 -13.34558643 322.20918301 -20.40234375 282.62109375 C-20.57741455 281.65397461 -20.75248535 280.68685547 -20.93286133 279.69042969 C-21.26075129 277.86109877 -21.57763067 276.02974783 -21.8815918 274.19628906 C-22.02636963 273.38256836 -22.17114746 272.56884766 -22.3203125 271.73046875 C-22.44035645 271.01914795 -22.56040039 270.30782715 -22.68408203 269.57495117 C-23.47604963 267.19627925 -24.36226089 266.26069435 -26.3125 264.6875 C-28.54818141 264.15529191 -28.54818141 264.15529191 -31.07739258 264.10327148 C-32.04723587 264.0498912 -33.01707916 263.99651093 -34.01631165 263.94151306 C-35.06924911 263.89764969 -36.12218658 263.85378632 -37.20703125 263.80859375 C-38.30480392 263.7509938 -39.4025766 263.69339386 -40.53361511 263.63404846 C-44.06355279 263.45107521 -47.59404986 263.28715145 -51.125 263.125 C-55.71517735 262.90092377 -60.30489702 262.66850678 -64.89453125 262.43359375 C-66.01763702 262.37787201 -67.1407428 262.32215027 -68.29788208 262.26473999 C-76.81905464 261.82211868 -85.29964234 261.1277258 -93.78559875 260.23765564 C-95.9578096 260.01740033 -98.1349711 259.84681171 -100.3125 259.6875 C-100.6425 260.0175 -100.9725 260.3475 -101.3125 260.6875 C-101.24591857 263.57471302 -101.11643392 266.43166384 -100.9375 269.3125 C-100.89367187 270.08851563 -100.84984375 270.86453125 -100.8046875 271.6640625 C-100.59363969 275.3222245 -100.37459758 278.97506494 -100.05639648 282.62573242 C-99.02528795 295.28952721 -99.12517338 307.97500016 -99.12719727 320.67260742 C-99.12727823 323.37840502 -99.12037064 326.08403223 -99.10668945 328.78979492 C-99.04129504 341.96435005 -99.03145444 355.10924794 -100.13671875 368.24609375 C-100.20607132 369.12612564 -100.27542389 370.00615753 -100.34687805 370.91285706 C-101.0225365 377.7991315 -102.86508237 383.09124137 -108.3125 387.6875 C-113.61702035 389.45567345 -119.09391456 389.6609553 -124.1875 387.125 C-127.77943375 384.32329167 -129.44472409 382.09006951 -130.3125 377.6875 C-130.78285302 371.71490412 -130.33466057 365.80596626 -129.80859375 359.8515625 C-129.00745149 348.79187358 -129.11614029 337.70810342 -129.125 326.625 C-129.12493958 325.47086609 -129.12487915 324.31673218 -129.12481689 323.12762451 C-129.13790495 305.58993001 -129.3687534 288.13614704 -131.3125 270.6875 C-131.4986084 268.8307666 -131.4986084 268.8307666 -131.68847656 266.93652344 C-131.83510742 265.67614258 -131.98173828 264.41576172 -132.1328125 263.1171875 C-132.26187988 261.96202637 -132.39094727 260.80686523 -132.52392578 259.61669922 C-133.07550074 256.65707379 -133.07550074 256.65707379 -135.00830078 254.8684082 C-137.80072783 253.43728195 -140.26432976 252.89560489 -143.359375 252.36328125 C-145.19290527 252.03336182 -145.19290527 252.03336182 -147.06347656 251.69677734 C-148.04000183 251.52719513 -148.04000183 251.52719513 -149.03625488 251.35418701 C-161.3240708 249.20628064 -173.46372022 246.59363085 -185.5625 243.5625 C-186.2263269 243.39859772 -186.89015381 243.23469543 -187.57409668 243.06582642 C-210.88292468 237.29222291 -210.88292468 237.29222291 -216.3125 231.6875 C-219.0278874 227.17473873 -218.92756274 222.81302281 -218.3125 217.6875 C-217.2926055 214.21469468 -215.71408675 211.71372322 -212.72265625 209.5234375 C-201.85533794 204.23911782 -184.50422007 211.77425608 -173.5 214.625 C-161.49264081 217.73009926 -149.54071559 220.5915096 -137.3125 222.6875 C-144.06023712 171.42966233 -157.18530481 120.69320374 -172.8515625 71.5 C-179.50190004 50.59149766 -179.50190004 50.59149766 -177.3125 43.6875 C-175.40264127 40.14170651 -173.10403818 38.06606174 -169.4375 36.3125 C-163.55802635 35.13660527 -159.1101848 34.97889515 -153.86595154 38.30223083 C-149.21224188 42.45211278 -147.4455106 49.75507376 -145.68359375 55.55859375 C-145.45284149 56.3008168 -145.22208923 57.04303986 -144.98434448 57.80775452 C-144.23079247 60.24424146 -143.48932249 62.68416009 -142.75 65.125 C-142.49060638 65.97529785 -142.23121277 66.8255957 -141.96395874 67.70166016 C-125.9606331 120.2466544 -114.18931213 173.50452072 -105.3125 227.6875 C-79.32466271 231.02330214 -53.50436081 232.96378914 -27.3125 233.6875 C-27.28457548 231.50007903 -27.26570544 229.31254283 -27.25 227.125 C-27.23259766 225.29775391 -27.23259766 225.29775391 -27.21484375 223.43359375 C-27.24277657 219.60187442 -27.51342739 215.81152525 -27.80371094 211.99121094 C-28.41127846 203.35530994 -28.51167079 194.73645388 -28.55078125 186.08203125 C-28.55556299 185.25329121 -28.56034473 184.42455116 -28.56527138 183.57069778 C-28.6012441 177.21380536 -28.61645589 170.85698204 -28.625 164.5 C-28.62673973 163.56018909 -28.62847946 162.62037819 -28.63027191 161.65208817 C-28.67685939 133.09385285 -28.04466583 104.638704 -26.4375 76.125 C-26.39380405 75.34781742 -26.35010811 74.57063484 -26.30508804 73.76990128 C-25.81407495 65.09629678 -25.28171318 56.42596552 -24.70591068 47.75758648 C-24.43489588 43.65437068 -24.18606681 39.55054368 -23.95551491 35.4448576 C-23.84081336 33.42153728 -23.72062806 31.39862364 -23.59835815 29.37574768 C-23.4493493 26.90016482 -23.30897802 24.42403946 -23.17922974 21.94737244 C-22.69276171 14.2328819 -21.98455622 7.82716606 -16.8125 1.75 C-11.77096103 -2.40926965 -5.84646663 -2.31652451 0 0 Z M302.328125 179.79296875 C301.04518555 180.51697876 301.04518555 180.51697876 299.73632812 181.25561523 C298.81271484 181.79001221 297.88910156 182.32440918 296.9375 182.875 C294.93409964 183.99802308 292.92882714 185.1177117 290.921875 186.234375 C289.88740234 186.81123047 288.85292969 187.38808594 287.78710938 187.98242188 C259.96981254 203.28456437 230.61801052 215.25000727 200.6875 225.6875 C199.53652832 226.08952637 198.38555664 226.49155273 197.19970703 226.90576172 C180.19801569 232.80152913 163.02852442 237.89811186 145.6875 242.6875 C149.40617658 252.43651756 157.63900372 260.15817606 164.6875 267.6875 C165.14721191 268.18652832 165.60692383 268.68555664 166.08056641 269.19970703 C186.97681047 291.73378358 216.69105165 308.77139327 247.76953125 310.8984375 C260.8174667 311.30865071 272.98498177 308.35261948 284.6875 302.6875 C285.58855469 302.25695312 286.48960937 301.82640625 287.41796875 301.3828125 C311.81698367 288.91924644 329.12154854 266.90853561 343 243.9375 C343.58217285 242.98415771 344.1643457 242.03081543 344.76416016 241.04858398 C345.29187012 240.15083252 345.81958008 239.25308105 346.36328125 238.328125 C346.83677002 237.52922852 347.31025879 236.73033203 347.7980957 235.90722656 C348.85058029 233.28049314 348.77457788 232.26918419 347.6875 229.6875 C345.94243228 227.6652058 344.18325715 225.77293662 342.3125 223.875 C332.11465154 213.14267311 324.18257016 201.30719661 316.87890625 188.46484375 C313.8326509 182.19149348 313.8326509 182.19149348 308.8371582 177.89550781 C306.00698933 177.62165161 304.78028209 178.37803925 302.328125 179.79296875 Z " fill="#79102C" transform="translate(515.3125,423.3125)"/>
<path d="M0 0 C5.6564663 6.32985514 6.65947798 15.04592911 8.38363647 23.12753296 C22.51621909 88.95119551 45.85507145 160.28583805 90.625 211.9375 C91.46417969 212.92234375 92.30335937 213.9071875 93.16796875 214.921875 C106.21267323 229.92304685 123.89867978 243.07525868 144.3125 244.6875 C167.53293988 245.98432119 191.00627514 233.25942386 209.375 220 C210.00092041 219.55180908 210.62684082 219.10361816 211.27172852 218.6418457 C214.37418932 216.32134261 214.37418932 216.32134261 216.44628906 213.12231445 C216.70129497 210.00476277 215.6017425 208.30953798 214.125 205.5703125 C213.57086426 204.52705811 213.01672852 203.48380371 212.44580078 202.40893555 C211.84493652 201.30461182 211.24407227 200.20028809 210.625 199.0625 C209.41372112 196.78012906 208.20278066 194.49757848 206.9921875 192.21484375 C205.47460729 189.38138703 203.95443663 186.5493686 202.43066406 183.71923828 C189.83230763 160.18940409 179.86443027 129.38024766 187.1875 102.6875 C192.16643524 89.42780931 200.85698463 79.30775628 213.21484375 72.48046875 C228.51820969 65.55626538 243.86130583 65.39085974 259.625 70.9375 C272.39273962 76.70625735 280.37052166 87.16223525 285.43164062 99.98046875 C293.94569411 123.9276482 293.13272997 148.20018927 284.625 171.9375 C284.25503906 172.97519531 283.88507813 174.01289062 283.50390625 175.08203125 C279.71176369 184.88386685 274.2496988 194.09120672 268.0078125 202.53515625 C267.58790039 203.10886963 267.16798828 203.68258301 266.73535156 204.27368164 C265.56999227 205.84323176 264.37568059 207.3911655 263.1796875 208.9375 C261.15792913 212.83878249 261.36552638 214.76489273 262.625 218.9375 C265.70057649 222.59289829 269.72386933 225.20735193 273.625 227.9375 C274.2344043 228.36579102 274.84380859 228.79408203 275.47167969 229.23535156 C293.87547219 241.98648402 313.62147675 251.32963158 334.625 258.9375 C335.44274902 259.24107422 336.26049805 259.54464844 337.10302734 259.85742188 C412.69361177 287.74008559 499.91455758 292.19983776 579.625 287.9375 C580.42129822 287.89496094 581.21759644 287.85242188 582.0380249 287.80859375 C644.23928018 284.41566031 706.26917885 276.14131435 766.59765625 260.3671875 C767.40203125 260.15724655 768.20640625 259.9473056 769.03515625 259.73100281 C772.82690933 258.73718954 776.61241897 257.72585289 780.39013672 256.67993164 C788.68944109 254.41917666 796.61335325 252.26695108 805 255.0625 C808.36904501 257.46896072 809.8673733 259.15184249 811.625 262.9375 C812.33853424 267.8958349 812.43315237 272.24772686 810.25 276.8125 C803.36129031 282.38907451 795.16812886 284.92397947 786.6796875 286.98828125 C785.64842239 287.24819855 784.61715729 287.50811584 783.55464172 287.77590942 C780.20634529 288.61440366 776.85376118 289.43365822 773.5 290.25 C772.34529205 290.53440948 771.19058411 290.81881897 770.00088501 291.11184692 C711.45175489 305.51976907 651.87315437 314.78047403 591.625 317.9375 C590.66754883 317.99389648 589.71009766 318.05029297 588.72363281 318.10839844 C495.08400153 323.54844577 397.61450465 316.16762919 247.625 245.9375 C246.53058594 244.92236328 246.53058594 244.92236328 245.4140625 243.88671875 C244.72054688 243.24347656 244.02703125 242.60023438 243.3125 241.9375 C242.71824219 241.36 242.12398437 240.7825 241.51171875 240.1875 C238.93324504 238.47919444 237.67272603 238.40019719 234.625 238.9375 C232.50873002 240.34932914 230.67555829 241.74018195 228.75 243.375 C203.79397877 263.43098053 171.96091988 277.09465185 139.625 274.9375 C106.2597537 271.02185472 79.73648214 247.35384722 59.625 221.9375 C58.84253906 220.97199219 58.06007813 220.00648438 57.25390625 219.01171875 C14.71041637 165.44095629 -8.00736194 94.87827142 -21.9375 28.75 C-22.18935059 27.55640869 -22.44120117 26.36281738 -22.70068359 25.13305664 C-25.7613927 9.9540108 -25.7613927 9.9540108 -21.375 1.9375 C-15.09374307 -4.18269906 -7.41042061 -4.52859038 0 0 Z M217.375 106.4765625 C211.62027456 115.86795472 214.42832968 128.00675839 216.78808594 138.11816406 C221.45294635 156.67534065 230.48879725 173.26392999 239.625 189.9375 C252.65495154 178.28860323 260.69264167 156.36928721 261.875 139.3359375 C262.42398959 126.09809915 260.41705714 111.40322585 251.625 100.9375 C248.17519603 97.69960045 244.46916544 96.6852725 239.8125 96.4375 C231.93542879 96.77320471 222.44206076 100.23774394 217.375 106.4765625 Z " fill="#79102C" transform="translate(1150.375,391.0625)"/>
<path d="M0 0 C1.41671553 -0.00368775 1.41671553 -0.00368775 2.86205158 -0.00745 C3.91477093 -0.00505926 4.96749029 -0.00266852 6.05211023 -0.00020533 C7.164918 -0.00160765 8.27772576 -0.00300996 9.42425498 -0.00445478 C13.2113253 -0.00797752 16.99835593 -0.00427621 20.78542576 -0.00069731 C23.51637693 -0.00118298 26.24732654 -0.00317747 28.97827703 -0.00510167 C34.96477249 -0.00850866 40.95125887 -0.00815389 46.93775454 -0.00541813 C55.89979315 -0.00134098 64.86182433 -0.00299416 73.82386311 -0.00580077 C89.09420234 -0.0104124 104.36453824 -0.01024513 119.63487777 -0.00751989 C135.11984792 -0.00477314 150.60481587 -0.00418467 166.08978615 -0.00625723 C167.06612916 -0.0063864 168.04247218 -0.00651557 169.04840135 -0.00664866 C173.02458889 -0.0071819 177.00077644 -0.00773061 180.97696398 -0.00829894 C218.05391848 -0.01359476 255.13087151 -0.01394411 292.20782623 -0.01115149 C293.30759365 -0.01106869 294.40736106 -0.01098589 295.54045476 -0.01090059 C296.64196887 -0.01081766 297.74348297 -0.01073473 298.87837629 -0.01064929 C332.39390016 -0.00812928 365.90942342 -0.00747323 399.42494735 -0.00867193 C401.66654554 -0.00874941 403.90814373 -0.00882657 406.14974192 -0.0089034 C415.15709076 -0.00921385 424.16443961 -0.00953252 433.17178846 -0.00986317 C458.35345176 -0.01078032 483.53511506 -0.01135081 508.71677837 -0.0116493 C510.43706393 -0.01166977 510.43706393 -0.01166977 512.19210274 -0.01169065 C548.75356787 -0.01210013 585.31503278 -0.01097204 621.87649784 -0.00879972 C623.65609316 -0.00869435 623.65609316 -0.00869435 625.4716399 -0.00858685 C644.73972899 -0.00744181 664.00781808 -0.00622239 683.27590716 -0.00499667 C759.69980898 -0.00014025 836.12370904 -0.00036535 912.54761085 -0.00522726 C931.80462958 -0.00644839 951.0616483 -0.00765941 970.31866703 -0.00879972 C971.50428611 -0.00887017 972.68990518 -0.00894062 973.91145211 -0.0090132 C1010.43281374 -0.01116842 1046.95417523 -0.01208384 1083.47553692 -0.0116493 C1085.1945903 -0.01162893 1085.1945903 -0.01162893 1086.94837203 -0.01160814 C1112.10235417 -0.0112957 1137.25633629 -0.01066214 1162.41031841 -0.0097388 C1171.41008266 -0.00940964 1180.40984692 -0.00909656 1189.40961117 -0.00878809 C1191.64865497 -0.0087107 1193.88769878 -0.00863197 1196.12674258 -0.00855189 C1229.63536506 -0.00735681 1263.14398685 -0.00837764 1296.65260924 -0.01090059 C1297.75229386 -0.01098339 1298.85197848 -0.01106618 1299.98498688 -0.01115149 C1301.63149005 -0.01127551 1301.63149005 -0.01127551 1303.31125592 -0.01140204 C1340.27913809 -0.0141562 1377.24701849 -0.01315392 1414.2149004 -0.00787074 C1418.17924067 -0.00731835 1422.14358094 -0.00678165 1426.10792122 -0.00625723 C1427.08088076 -0.00612702 1428.05384031 -0.00599681 1429.05628347 -0.00586266 C1444.50360404 -0.00388517 1459.95092242 -0.00526892 1475.39824279 -0.00802623 C1490.56326824 -0.01066232 1505.72828998 -0.00975984 1520.89331496 -0.00501215 C1529.80001788 -0.00233057 1538.70671068 -0.00242161 1547.61341314 -0.00649374 C1553.51399936 -0.00892133 1559.41457763 -0.00778147 1565.31516288 -0.00362689 C1568.66948245 -0.00136796 1572.02376494 -0.00127047 1575.37808631 -0.00444341 C1578.96929363 -0.00760239 1582.56044444 -0.00472513 1586.15164903 -0.00020533 C1587.72714195 -0.00379144 1587.72714195 -0.00379144 1589.33446301 -0.00745 C1590.28139853 -0.0049915 1591.22833405 -0.002533 1592.20396459 0 C1593.02354089 0.00002797 1593.84311718 0.00005593 1594.68752912 0.00008475 C1596.66455421 0.12514383 1596.66455421 0.12514383 1598.66455421 1.12514383 C1598.66455421 5.41514383 1598.66455421 9.70514383 1598.66455421 14.12514383 C1549.61971374 14.13064174 1500.57487324 14.13591371 1451.53003273 14.14101297 C1450.57036517 14.14111277 1449.61069762 14.14121257 1448.62194923 14.14131539 C1345.82519216 14.15199928 1243.02843507 14.16122328 1140.23167763 14.16748697 C1137.94918144 14.16762642 1135.66668526 14.16776588 1133.38418907 14.16790533 C1085.47764042 14.1708278 1037.57109175 14.17354453 989.66454307 14.17602351 C965.60073572 14.17726894 941.53692837 14.17855391 917.47312102 14.17987628 C913.84310807 14.18007552 910.21309513 14.18027364 906.58308218 14.18047171 C850.66309581 14.18353295 794.74310965 14.18744411 738.82312355 14.19380838 C737.62011273 14.19394528 736.41710192 14.19408218 735.17763623 14.19422323 C715.78062025 14.1964357 696.38360427 14.19871927 676.98658829 14.20101227 C621.14072558 14.20761297 565.29486304 14.21369089 509.44899997 14.21628363 C508.30141187 14.21633716 507.15382376 14.2163907 505.97146025 14.21644585 C480.78362872 14.21761142 455.59579719 14.21850636 430.40796564 14.21914482 C420.27437323 14.21940645 410.14078082 14.21970707 400.00718841 14.22002108 C398.89808702 14.2200545 397.78898563 14.22008793 396.6462751 14.22012237 C360.86687242 14.22122014 325.08747098 14.22549569 289.30806881 14.23142604 C253.28804729 14.23738181 217.26802697 14.24024557 181.24800495 14.23876782 C176.27839523 14.23856472 171.30878551 14.23839735 166.33917579 14.23825151 C165.36493031 14.23822163 164.39068483 14.23819175 163.38691676 14.23816097 C147.91635036 14.23777927 132.4457865 14.24077393 116.97522079 14.2451537 C101.78902843 14.24938435 86.60283939 14.25009455 71.41664672 14.24697565 C62.49638257 14.24525201 53.57612886 14.24631322 44.65586592 14.25136084 C38.7475639 14.2544351 32.83926943 14.25394915 26.93096766 14.25044491 C23.5714382 14.24855576 20.21194606 14.24883541 16.85241538 14.25237908 C13.25733619 14.25593439 9.66231292 14.2534653 6.06723562 14.24934233 C4.48582443 14.25310565 4.48582443 14.25310565 2.87246553 14.25694499 C1.92660011 14.25459209 0.9807347 14.25223919 0.0062067 14.249815 C-0.81454968 14.249879 -1.63530606 14.24994301 -2.48093385 14.25000896 C-4.33544579 14.12514383 -4.33544579 14.12514383 -5.33544579 13.12514383 C-5.43418395 11.12714812 -5.46516378 9.12557225 -5.46044579 7.12514383 C-5.46302391 6.03201883 -5.46560204 4.93889383 -5.46825829 3.81264383 C-5.25441151 -0.51460863 -3.91201363 0.0001335 0 0 Z " fill="#79102C" transform="translate(632.3354457877576,919.8748561665416)"/>
<path d="M0 0 C2.68640414 2.43415962 4.64404481 4.93606486 6.74609375 7.88671875 C11.00725344 13.69290157 15.56084533 19.02289617 20.49609375 24.26171875 C21.15738281 24.9990625 21.81867187 25.73640625 22.5 26.49609375 C40.73450149 46.01081641 66.58261617 56.62142448 92.8515625 58.49194336 C99.17652343 58.99339519 104.86456684 60.22228539 109.99609375 64.19921875 C112.40451832 69.11641891 112.19373905 73.89857049 111.49609375 79.26171875 C109.69331512 83.543318 108.24615856 84.82898905 104.24609375 87.13671875 C82.54148517 93.8643465 53.76797807 83.43120287 34.68359375 73.57421875 C18.34930343 64.78872215 3.22594437 52.64251561 -8.50390625 38.26171875 C-8.96474609 37.70790527 -9.42558594 37.1540918 -9.90039062 36.58349609 C-11.50710609 34.65070004 -13.1006304 32.70764901 -14.69140625 30.76171875 C-15.2030835 30.14466064 -15.71476074 29.52760254 -16.24194336 28.8918457 C-21.20370843 22.74503614 -25.38116074 16.57802041 -24.9453125 8.4375 C-24.15510562 4.54240945 -22.44160365 1.90707248 -19.50390625 -0.73828125 C-13.08730773 -4.90907029 -6.19539242 -4.30101346 0 0 Z " fill="#79102C" transform="translate(855.50390625,288.73828125)"/>
<path d="M0 0 C7.34639816 5.43465134 11.45626126 12.86171763 13.38671875 21.765625 C14.62785159 37.24297952 13.44596486 50.35518161 3.38671875 62.765625 C-2.50739476 69.25349441 -9.42288091 72.58010879 -18.1640625 73.1484375 C-34.59647468 73.74577373 -34.59647468 73.74577373 -41.61328125 68.765625 C-42.30421875 68.30285156 -42.99515625 67.84007812 -43.70703125 67.36328125 C-50.36638556 62.28179634 -55.21277058 54.07735135 -56.61328125 45.765625 C-57.54534548 31.47906666 -56.22735874 18.1378324 -46.61328125 6.765625 C-34.82747546 -6.01079809 -15.09120229 -9.00841643 0 0 Z M-28.61328125 15.765625 C-33.28717539 22.10310858 -34.80939954 27.13542564 -34.86328125 35.015625 C-34.88390625 35.75425781 -34.90453125 36.49289062 -34.92578125 37.25390625 C-34.96749807 43.16726527 -33.9353447 47.72959377 -30.25390625 52.54296875 C-27.52127598 54.82271928 -25.63231326 55.76256628 -22.11328125 56.328125 C-17.80236402 55.63529902 -15.85140564 54.71591611 -12.61328125 51.765625 C-7.66970658 43.32691155 -6.29538234 34.13071995 -8.36328125 24.578125 C-9.80102435 19.46954845 -12.17025371 15.72764336 -16.61328125 12.765625 C-21.5989247 12.30399135 -24.7383407 12.50251717 -28.61328125 15.765625 Z " fill="#79102C" transform="translate(2081.61328125,822.234375)"/>
<path d="M0 0 C7.34639816 5.43465134 11.45626126 12.86171763 13.38671875 21.765625 C14.62785159 37.24297952 13.44596486 50.35518161 3.38671875 62.765625 C-2.50739476 69.25349441 -9.42288091 72.58010879 -18.1640625 73.1484375 C-34.59647468 73.74577373 -34.59647468 73.74577373 -41.61328125 68.765625 C-42.30421875 68.30285156 -42.99515625 67.84007812 -43.70703125 67.36328125 C-50.36638556 62.28179634 -55.21277058 54.07735135 -56.61328125 45.765625 C-57.54534548 31.47906666 -56.22735874 18.1378324 -46.61328125 6.765625 C-34.82747546 -6.01079809 -15.09120229 -9.00841643 0 0 Z M-28.61328125 15.765625 C-33.28717539 22.10310858 -34.80939954 27.13542564 -34.86328125 35.015625 C-34.88390625 35.75425781 -34.90453125 36.49289062 -34.92578125 37.25390625 C-34.96749807 43.16726527 -33.9353447 47.72959377 -30.25390625 52.54296875 C-27.52127598 54.82271928 -25.63231326 55.76256628 -22.11328125 56.328125 C-17.80236402 55.63529902 -15.85140564 54.71591611 -12.61328125 51.765625 C-7.66970658 43.32691155 -6.29538234 34.13071995 -8.36328125 24.578125 C-9.80102435 19.46954845 -12.17025371 15.72764336 -16.61328125 12.765625 C-21.5989247 12.30399135 -24.7383407 12.50251717 -28.61328125 15.765625 Z " fill="#79102C" transform="translate(1672.61328125,822.234375)"/>
<path d="M0 0 C7.34639816 5.43465134 11.45626126 12.86171763 13.38671875 21.765625 C14.62785159 37.24297952 13.44596486 50.35518161 3.38671875 62.765625 C-2.50739476 69.25349441 -9.42288091 72.58010879 -18.1640625 73.1484375 C-34.59647468 73.74577373 -34.59647468 73.74577373 -41.61328125 68.765625 C-42.30421875 68.30285156 -42.99515625 67.84007812 -43.70703125 67.36328125 C-50.36638556 62.28179634 -55.21277058 54.07735135 -56.61328125 45.765625 C-57.54534548 31.47906666 -56.22735874 18.1378324 -46.61328125 6.765625 C-34.82747546 -6.01079809 -15.09120229 -9.00841643 0 0 Z M-28.61328125 15.765625 C-33.28717539 22.10310858 -34.80939954 27.13542564 -34.86328125 35.015625 C-34.88390625 35.75425781 -34.90453125 36.49289062 -34.92578125 37.25390625 C-34.96749807 43.16726527 -33.9353447 47.72959377 -30.25390625 52.54296875 C-27.52127598 54.82271928 -25.63231326 55.76256628 -22.11328125 56.328125 C-17.80236402 55.63529902 -15.85140564 54.71591611 -12.61328125 51.765625 C-7.66970658 43.32691155 -6.29538234 34.13071995 -8.36328125 24.578125 C-9.80102435 19.46954845 -12.17025371 15.72764336 -16.61328125 12.765625 C-21.5989247 12.30399135 -24.7383407 12.50251717 -28.61328125 15.765625 Z " fill="#79102C" transform="translate(1098.61328125,822.234375)"/>
<path d="M0 0 C6.93 0 13.86 0 21 0 C21.02701176 3.56255095 21.04684512 7.12489629 21.0625 10.6875 C21.07087891 11.69490234 21.07925781 12.70230469 21.08789062 13.74023438 C21.09272461 15.20493164 21.09272461 15.20493164 21.09765625 16.69921875 C21.10551147 18.04246216 21.10551147 18.04246216 21.11352539 19.4128418 C20.99840198 22.03641759 20.58234285 24.44293053 20 27 C20.66644531 26.9278125 21.33289063 26.855625 22.01953125 26.78125 C28.70510535 26.10801736 35.2830148 25.88306989 42 26 C41.75443359 24.83597656 41.75443359 24.83597656 41.50390625 23.6484375 C40.8550202 18.95030126 40.89393831 14.35973194 40.9375 9.625 C40.958125 6.44875 40.97875 3.2725 41 0 C47.93 0 54.86 0 62 0 C62 24.42 62 48.84 62 74 C55.07 74 48.14 74 41 74 C40.979375 70.720625 40.95875 67.44125 40.9375 64.0625 C40.928396 63.04808838 40.91929199 62.03367676 40.90991211 60.98852539 C40.89262291 55.24125934 41.25756365 49.69980661 42 44 C41.01 44.495 41.01 44.495 40 45 C38.4804236 45.15123831 36.95527498 45.24881693 35.4296875 45.31640625 C34.53378906 45.35830078 33.63789062 45.40019531 32.71484375 45.44335938 C31.77769531 45.48267578 30.84054687 45.52199219 29.875 45.5625 C28.93011719 45.60568359 27.98523438 45.64886719 27.01171875 45.69335938 C24.67462908 45.79959072 22.3374317 45.90163176 20 46 C20.16371094 46.75539063 20.32742188 47.51078125 20.49609375 48.2890625 C21.18077669 53.33130119 21.10511821 58.29359795 21.0625 63.375 C21.05798828 64.39722656 21.05347656 65.41945313 21.04882812 66.47265625 C21.03710317 68.98179623 21.01916965 71.49090586 21 74 C14.07 74 7.14 74 0 74 C0 49.58 0 25.16 0 0 Z " fill="#79102C" transform="translate(967,819)"/>
<path d="M0 0 C6.93 0 13.86 0 21 0 C21.02701176 3.56255095 21.04684512 7.12489629 21.0625 10.6875 C21.07087891 11.69490234 21.07925781 12.70230469 21.08789062 13.74023438 C21.09272461 15.20493164 21.09272461 15.20493164 21.09765625 16.69921875 C21.10551147 18.04246216 21.10551147 18.04246216 21.11352539 19.4128418 C20.99840198 22.03641759 20.58234285 24.44293053 20 27 C20.66644531 26.9278125 21.33289063 26.855625 22.01953125 26.78125 C28.70510535 26.10801736 35.2830148 25.88306989 42 26 C41.75443359 24.83597656 41.75443359 24.83597656 41.50390625 23.6484375 C40.8550202 18.95030126 40.89393831 14.35973194 40.9375 9.625 C40.958125 6.44875 40.97875 3.2725 41 0 C47.93 0 54.86 0 62 0 C62 24.42 62 48.84 62 74 C55.07 74 48.14 74 41 74 C40.979375 70.720625 40.95875 67.44125 40.9375 64.0625 C40.928396 63.04808838 40.91929199 62.03367676 40.90991211 60.98852539 C40.89262291 55.24125934 41.25756365 49.69980661 42 44 C41.01 44.495 41.01 44.495 40 45 C38.4804236 45.15123831 36.95527498 45.24881693 35.4296875 45.31640625 C34.53378906 45.35830078 33.63789062 45.40019531 32.71484375 45.44335938 C31.77769531 45.48267578 30.84054687 45.52199219 29.875 45.5625 C28.93011719 45.60568359 27.98523438 45.64886719 27.01171875 45.69335938 C24.67462908 45.79959072 22.3374317 45.90163176 20 46 C20.16371094 46.75539063 20.32742188 47.51078125 20.49609375 48.2890625 C21.18077669 53.33130119 21.10511821 58.29359795 21.0625 63.375 C21.05798828 64.39722656 21.05347656 65.41945313 21.04882812 66.47265625 C21.03710317 68.98179623 21.01916965 71.49090586 21 74 C14.07 74 7.14 74 0 74 C0 49.58 0 25.16 0 0 Z " fill="#79102C" transform="translate(643,819)"/>
<path d="M0 0 C6.6 0 13.2 0 20 0 C20.09255345 6.41960979 20.17197123 12.83684277 20.21972656 19.2565918 C20.23966367 21.43375556 20.26682339 23.61086704 20.30175781 25.7878418 C20.80126915 57.74922163 20.80126915 57.74922163 11.5 68.4921875 C5.81158007 74.21023461 -0.40118119 77.33691215 -8.46875 78 C-17.09493269 78 -24.18064076 76.56378716 -30.546875 70.53515625 C-39.29435438 61.33298116 -40.15889754 50.00470569 -40.09765625 37.9140625 C-40.0962413 36.85714203 -40.09482635 35.80022156 -40.09336853 34.71127319 C-40.0877894 31.34915284 -40.07524069 27.98710009 -40.0625 24.625 C-40.05748231 22.33984471 -40.05291987 20.05468838 -40.04882812 17.76953125 C-40.03782679 12.17966162 -40.02057649 6.58984225 -40 1 C-33.4 1 -26.8 1 -20 1 C-19.96261719 4.06023438 -19.92523437 7.12046875 -19.88671875 10.2734375 C-19.84039392 13.26553139 -19.7892002 16.25750559 -19.73754883 19.24951172 C-19.70447084 21.31519178 -19.67638664 23.38095851 -19.65356445 25.44677734 C-19.61970154 28.43103677 -19.56737207 31.4145141 -19.51171875 34.3984375 C-19.50532883 35.30927094 -19.4989389 36.22010437 -19.49235535 37.15853882 C-19.35428355 43.29797459 -18.72695426 49.41360393 -16 55 C-13.18764441 57.66611046 -12.4402709 58.00772405 -8.4375 57.9375 C-4.99353986 57.30362669 -4.99353986 57.30362669 -3.125 55.125 C-0.80980303 50.75185016 -0.67153224 46.52576815 -0.4375 41.6875 C-0.37381226 40.41471191 -0.37381226 40.41471191 -0.30883789 39.11621094 C0.260484 26.089393 0.07821393 13.03565455 0 0 Z " fill="#79102C" transform="translate(2147,818)"/>
<path d="M0 0 C37.10273973 0 37.10273973 0 46 6 C50.81534792 11.06228884 51.35275099 15.32128179 51.28125 22.078125 C50.59517374 29.20569504 47.33356966 34.40720391 42 39 C43.80344082 45.10303481 48.34728155 49.4634683 52.38867188 54.20507812 C52.96294922 54.89150391 53.53722656 55.57792969 54.12890625 56.28515625 C54.65556885 56.90269775 55.18223145 57.52023926 55.72485352 58.15649414 C57.07897697 60.11417865 57.57819857 61.67382776 58 64 C55.54921238 66.34136952 53.08817454 68.67167078 50.625 71 C49.92632813 71.66773438 49.22765625 72.33546875 48.5078125 73.0234375 C47.8375 73.65507813 47.1671875 74.28671875 46.4765625 74.9375 C45.85861816 75.52402344 45.24067383 76.11054687 44.60400391 76.71484375 C43 78 43 78 41 78 C40.60731934 77.26475098 40.21463867 76.52950195 39.81005859 75.77197266 C38.32476727 72.9938712 36.83718727 70.21701025 35.34814453 67.44091797 C34.39834561 65.66856363 33.45109348 63.89484521 32.50390625 62.12109375 C29.20704625 55.97852301 25.83810417 49.95617237 22.05322266 44.09912109 C21 42 21 42 21 38 C22.63604196 36.62926214 24.30678061 35.29944744 26 34 C29.17593643 30.16697327 29.34939029 26.87621499 29.3984375 22.0859375 C28.87533798 19.34735768 28.28274235 18.61189562 26 17 C23.69011685 16.25613932 21.35684056 15.57809297 19 15 C19.03029297 15.75692139 19.06058594 16.51384277 19.09179688 17.29370117 C19.83093948 36.21148762 20.12584637 55.06711288 20 74 C13.4 74 6.8 74 0 74 C0 49.58 0 25.16 0 0 Z " fill="#79102C" transform="translate(1963,819)"/>
<path d="M0 0 C37.10273973 0 37.10273973 0 46 6 C50.81534792 11.06228884 51.35275099 15.32128179 51.28125 22.078125 C50.59517374 29.20569504 47.33356966 34.40720391 42 39 C43.80344082 45.10303481 48.34728155 49.4634683 52.38867188 54.20507812 C52.96294922 54.89150391 53.53722656 55.57792969 54.12890625 56.28515625 C54.65556885 56.90269775 55.18223145 57.52023926 55.72485352 58.15649414 C57.07897697 60.11417865 57.57819857 61.67382776 58 64 C55.54921238 66.34136952 53.08817454 68.67167078 50.625 71 C49.92632813 71.66773438 49.22765625 72.33546875 48.5078125 73.0234375 C47.8375 73.65507813 47.1671875 74.28671875 46.4765625 74.9375 C45.85861816 75.52402344 45.24067383 76.11054687 44.60400391 76.71484375 C43 78 43 78 41 78 C40.60731934 77.26475098 40.21463867 76.52950195 39.81005859 75.77197266 C38.32476727 72.9938712 36.83718727 70.21701025 35.34814453 67.44091797 C34.39834561 65.66856363 33.45109348 63.89484521 32.50390625 62.12109375 C29.20704625 55.97852301 25.83810417 49.95617237 22.05322266 44.09912109 C21 42 21 42 21 38 C22.63604196 36.62926214 24.30678061 35.29944744 26 34 C29.17593643 30.16697327 29.34939029 26.87621499 29.3984375 22.0859375 C28.87533798 19.34735768 28.28274235 18.61189562 26 17 C23.69011685 16.25613932 21.35684056 15.57809297 19 15 C19.03029297 15.75692139 19.06058594 16.51384277 19.09179688 17.29370117 C19.83093948 36.21148762 20.12584637 55.06711288 20 74 C13.4 74 6.8 74 0 74 C0 49.58 0 25.16 0 0 Z " fill="#79102C" transform="translate(1701,819)"/>
<path d="M0 0 C37.10273973 0 37.10273973 0 46 6 C50.81534792 11.06228884 51.35275099 15.32128179 51.28125 22.078125 C50.59517374 29.20569504 47.33356966 34.40720391 42 39 C43.80344082 45.10303481 48.34728155 49.4634683 52.38867188 54.20507812 C52.96294922 54.89150391 53.53722656 55.57792969 54.12890625 56.28515625 C54.65556885 56.90269775 55.18223145 57.52023926 55.72485352 58.15649414 C57.07897697 60.11417865 57.57819857 61.67382776 58 64 C55.54921238 66.34136952 53.08817454 68.67167078 50.625 71 C49.92632813 71.66773438 49.22765625 72.33546875 48.5078125 73.0234375 C47.8375 73.65507813 47.1671875 74.28671875 46.4765625 74.9375 C45.85861816 75.52402344 45.24067383 76.11054687 44.60400391 76.71484375 C43 78 43 78 41 78 C40.60731934 77.26475098 40.21463867 76.52950195 39.81005859 75.77197266 C38.32476727 72.9938712 36.83718727 70.21701025 35.34814453 67.44091797 C34.39834561 65.66856363 33.45109348 63.89484521 32.50390625 62.12109375 C29.20704625 55.97852301 25.83810417 49.95617237 22.05322266 44.09912109 C21 42 21 42 21 38 C22.63604196 36.62926214 24.30678061 35.29944744 26 34 C29.17593643 30.16697327 29.34939029 26.87621499 29.3984375 22.0859375 C28.87533798 19.34735768 28.28274235 18.61189562 26 17 C23.69011685 16.25613932 21.35684056 15.57809297 19 15 C19.03029297 15.75692139 19.06058594 16.51384277 19.09179688 17.29370117 C19.83093948 36.21148762 20.12584637 55.06711288 20 74 C13.4 74 6.8 74 0 74 C0 49.58 0 25.16 0 0 Z " fill="#79102C" transform="translate(1451,819)"/>
<path d="M0 0 C0.77040851 6.06696699 1.09706112 11.88514973 1 18 C-0.33804687 18.16435547 -0.33804687 18.16435547 -1.703125 18.33203125 C-2.87359375 18.49058594 -4.0440625 18.64914062 -5.25 18.8125 C-6.41015625 18.96332031 -7.5703125 19.11414063 -8.765625 19.26953125 C-11.98394666 19.99637443 -13.58331655 20.81661025 -16 23 C-14.4477403 30.76129851 -8.15608542 35.57413818 -2 40 C-1.01 40.66 -0.02 41.32 1 42 C2.65 38.04 4.3 34.08 6 30 C9.5874856 31.7937428 12.16756222 33.6103797 15.25 36.125 C16.14203125 36.84945312 17.0340625 37.57390625 17.953125 38.3203125 C18.62859375 38.87460937 19.3040625 39.42890625 20 40 C18.20502295 44.78940138 15.76331247 48.7095938 13 53 C15.64 55.31 18.28 57.62 21 60 C19.95754814 64.16980745 18.20737483 67.18249379 15.9375 70.75 C15.56044922 71.35199219 15.18339844 71.95398438 14.79492188 72.57421875 C13.86806837 74.05249143 12.93467611 75.52666089 12 77 C8.56049636 76.38801624 6.48435515 75.07941153 3.75 72.9375 C3.04359375 72.38964844 2.3371875 71.84179688 1.609375 71.27734375 C1.07828125 70.85582031 0.5471875 70.43429687 0 70 C-0.76183594 70.50660156 -0.76183594 70.50660156 -1.5390625 71.0234375 C-2.22742187 71.46945312 -2.91578125 71.91546875 -3.625 72.375 C-4.29789063 72.81585937 -4.97078125 73.25671875 -5.6640625 73.7109375 C-13.60809943 78.09477059 -23.91507536 78.48131547 -32.6796875 76.34765625 C-36.55865913 74.64237249 -39.49515706 72.2203003 -41.37109375 68.30859375 C-43.3719853 60.96370614 -43.06848018 53.30048688 -39.75 46.4375 C-38.20268611 43.73633204 -36.61799037 41.53756729 -34.625 39.125 C-32.74483787 37.16169918 -32.74483787 37.16169918 -33.1875 34.875 C-33.5896875 33.946875 -33.5896875 33.946875 -34 33 C-35.9820586 27.05382419 -36.07558017 20.32325317 -33.4375 14.625 C-32.633125 13.75875 -31.82875 12.8925 -31 12 C-30.53722656 11.50113281 -30.07445312 11.00226562 -29.59765625 10.48828125 C-21.67595249 2.79899912 -10.77668846 -0.21130762 0 0 Z M-23 48 C-24.59492803 51.18985607 -24.37616681 54.52932887 -24 58 C-23.10242444 60.14780077 -23.10242444 60.14780077 -21 61 C-17.5 61.5 -17.5 61.5 -14 61 C-12.28829389 59.54955743 -12.28829389 59.54955743 -11 58 C-12.61886415 56.32737283 -14.2452729 54.66204463 -15.875 53 C-16.77992187 52.071875 -17.68484375 51.14375 -18.6171875 50.1875 C-20.70644278 47.77457624 -20.70644278 47.77457624 -23 48 Z " fill="#79102C" transform="translate(1398,818)"/>
<path d="M0 0 C0.66 0 1.32 0 2 0 C2.40202637 0.77899658 2.80405273 1.55799316 3.21826172 2.3605957 C12.69477902 20.73199484 12.69477902 20.73199484 22.25 39.0625 C22.6318042 39.79259277 23.0136084 40.52268555 23.40698242 41.27490234 C25.56727449 45.37713732 27.79813171 49.43051504 30.08984375 53.4609375 C30.60579102 54.37480225 31.12173828 55.28866699 31.65332031 56.23022461 C32.6534502 57.99509418 33.66405306 59.7540822 34.68652344 61.50610352 C35.13415039 62.29686279 35.58177734 63.08762207 36.04296875 63.90234375 C36.44539795 64.59835693 36.84782715 65.29437012 37.26245117 66.01147461 C38.186904 68.50391693 38.04931566 69.57168087 37 72 C35.54125977 73.46386719 35.54125977 73.46386719 33.69140625 74.796875 C33.02689453 75.28027344 32.36238281 75.76367188 31.67773438 76.26171875 C30.63069336 76.99841797 30.63069336 76.99841797 29.5625 77.75 C28.86833984 78.25660156 28.17417969 78.76320313 27.45898438 79.28515625 C22.28724099 83 22.28724099 83 20 83 C17.69 78.05 15.38 73.1 13 68 C4.75 68 -3.5 68 -12 68 C-12.99 71.3 -13.98 74.6 -15 78 C-15.63763539 79.67798788 -16.28627281 81.35293725 -17 83 C-21.21654356 81.51364884 -24.62478605 79.38750841 -28.3125 76.875 C-29.38113281 76.15054688 -30.44976563 75.42609375 -31.55078125 74.6796875 C-32.35902344 74.12539063 -33.16726563 73.57109375 -34 73 C-33.43700234 68.55582436 -32.30847636 65.10129291 -30.33203125 61.08984375 C-29.4965979 59.37812988 -29.4965979 59.37812988 -28.64428711 57.63183594 C-28.03382786 56.40032298 -27.42322866 55.16887938 -26.8125 53.9375 C-26.18484309 52.65826255 -25.55798422 51.37863326 -24.93188477 50.09863281 C-23.95592673 48.10421317 -22.97915664 46.11022045 -21.99931335 44.1177063 C-19.68430409 39.4098557 -17.39946746 34.68833638 -15.1328125 29.95703125 C-14.82089462 29.30673447 -14.50897675 28.65643768 -14.18760681 27.98643494 C-12.97797484 25.46443449 -11.76837292 22.9424273 -10.56240845 20.41867065 C-7.24739302 13.4867364 -3.84191476 6.65657958 0 0 Z M0 36 C-2.97 43.92 -2.97 43.92 -6 52 C-0.06 51.505 -0.06 51.505 6 51 C5.23239022 47.16195111 4.40495674 44.23779856 2.9375 40.6875 C2.57527344 39.80449219 2.21304688 38.92148437 1.83984375 38.01171875 C1.56269531 37.34785156 1.28554688 36.68398438 1 36 C0.67 36 0.34 36 0 36 Z " fill="#79102C" transform="translate(749,814)"/>
<path d="M0 0 C1.32 7.26 2.64 14.52 4 22 C2.040625 22.70125 0.08125 23.4025 -1.9375 24.125 C-10.12593414 27.30592599 -17.76985494 30.74244641 -22.1875 38.71875 C-23.76226375 43.14020206 -23.7505634 47.40279919 -23 52 C-21.39077314 55.35838648 -20.13873254 56.51981158 -16.73046875 57.95703125 C-14.51401597 58.72144567 -12.25807778 59.3690665 -10 60 C-10 54.39 -10 48.78 -10 43 C-3.4 43 3.2 43 10 43 C10 54.22 10 65.44 10 77 C-1.78766909 80.36790545 -17.4963444 81.51614535 -28.91796875 76.18359375 C-29.60503906 75.79300781 -30.29210938 75.40242187 -31 75 C-31.65613281 74.66097656 -32.31226563 74.32195312 -32.98828125 73.97265625 C-39.11741888 70.28467408 -42.78240807 63.65277579 -45 57 C-46.02851979 42.67418857 -44.5091497 31.43193621 -34.91796875 20.08203125 C-34.28503906 19.39496094 -33.65210938 18.70789063 -33 18 C-32.37738281 17.32324219 -31.75476562 16.64648438 -31.11328125 15.94921875 C-24.11715501 9.08635206 -10.35393929 0 0 0 Z " fill="#79102C" transform="translate(1937,816)"/>
<path d="M0 0 C37.73611111 1.45138889 37.73611111 1.45138889 46.75 10.875 C50.64980876 16.29140106 51.73864104 21.387404 51 28 C49.03989978 38.34405831 43.88631737 45.23595546 35.515625 51.45703125 C31.03655685 54.20428578 25.35525069 57 20 57 C20 62.94 20 68.88 20 75 C13.4 75 6.8 75 0 75 C0 50.25 0 25.5 0 0 Z M20 16 C20 24.25 20 32.5 20 41 C25.30076254 38.87969498 27.48352889 37.03294222 30 32 C30.6318658 26.89994033 30.86148903 23.20608464 27.8125 18.9375 C24.85831091 16.62951482 24.85831091 16.62951482 20 16 Z " fill="#79102C" transform="translate(2183,818)"/>
<path d="M0 0 C1 1 1 1 1.09765625 4.81640625 C1.09191138 6.39847047 1.07889593 7.98051031 1.0625 9.5625 C1.041875 12.346875 1.02125 15.13125 1 18 C-4.94 18.33 -10.88 18.66 -17 19 C-17 22.96 -17 26.92 -17 31 C-15.35 30.67 -13.7 30.34 -12 30 C-8.65963676 29.87808893 -5.34435659 29.95540858 -2 30 C-2 35.61 -2 41.22 -2 47 C-6.95 47 -11.9 47 -17 47 C-17 50.96 -17 54.92 -17 59 C-10.73 59 -4.46 59 2 59 C2 64.94 2 70.88 2 77 C-2.91135426 77.02297411 -7.82252151 77.04288217 -12.73388672 77.05493164 C-14.40414055 77.05995569 -16.07438999 77.06677605 -17.74462891 77.07543945 C-20.14747196 77.08758946 -22.55025679 77.09324763 -24.953125 77.09765625 C-25.69806213 77.10281754 -26.44299927 77.10797882 -27.21051025 77.11329651 C-30.72412219 77.1136754 -33.56095063 76.85976234 -37 76 C-37 51.25 -37 26.5 -37 1 C-7 0 -7 0 0 0 Z " fill="#79102C" transform="translate(1555,817)"/>
<path d="M0 0 C1 1 1 1 1.09765625 4.81640625 C1.09191138 6.39847047 1.07889593 7.98051031 1.0625 9.5625 C1.041875 12.346875 1.02125 15.13125 1 18 C-4.94 18.33 -10.88 18.66 -17 19 C-17 22.96 -17 26.92 -17 31 C-15.35 30.67 -13.7 30.34 -12 30 C-8.65963676 29.87808893 -5.34435659 29.95540858 -2 30 C-2 35.61 -2 41.22 -2 47 C-6.95 47 -11.9 47 -17 47 C-17 50.96 -17 54.92 -17 59 C-10.73 59 -4.46 59 2 59 C2 64.94 2 70.88 2 77 C-2.91135426 77.02297411 -7.82252151 77.04288217 -12.73388672 77.05493164 C-14.40414055 77.05995569 -16.07438999 77.06677605 -17.74462891 77.07543945 C-20.14747196 77.08758946 -22.55025679 77.09324763 -24.953125 77.09765625 C-25.69806213 77.10281754 -26.44299927 77.10797882 -27.21051025 77.11329651 C-30.72412219 77.1136754 -33.56095063 76.85976234 -37 76 C-37 51.25 -37 26.5 -37 1 C-7 0 -7 0 0 0 Z " fill="#79102C" transform="translate(1221,817)"/>
<path d="M0 0 C1 1 1 1 1.09765625 4.81640625 C1.09191138 6.39847047 1.07889593 7.98051031 1.0625 9.5625 C1.041875 12.346875 1.02125 15.13125 1 18 C-4.94 18.33 -10.88 18.66 -17 19 C-17 22.96 -17 26.92 -17 31 C-15.35 30.67 -13.7 30.34 -12 30 C-8.65963676 29.87808893 -5.34435659 29.95540858 -2 30 C-2 35.61 -2 41.22 -2 47 C-6.95 47 -11.9 47 -17 47 C-17 50.96 -17 54.92 -17 59 C-10.73 59 -4.46 59 2 59 C2 64.94 2 70.88 2 77 C-2.91135426 77.02297411 -7.82252151 77.04288217 -12.73388672 77.05493164 C-14.40414055 77.05995569 -16.07438999 77.06677605 -17.74462891 77.07543945 C-20.14747196 77.08758946 -22.55025679 77.09324763 -24.953125 77.09765625 C-25.69806213 77.10281754 -26.44299927 77.10797882 -27.21051025 77.11329651 C-30.72412219 77.1136754 -33.56095063 76.85976234 -37 76 C-37 51.25 -37 26.5 -37 1 C-7 0 -7 0 0 0 Z " fill="#79102C" transform="translate(925,817)"/>
<path d="M0 0 C2.4375 0.375 2.4375 0.375 5 1 C6.21988157 3.43976314 6.13745536 5.03861237 6.15771484 7.76586914 C6.16797699 8.7577272 6.17823914 9.74958527 6.18881226 10.77149963 C6.19611359 11.84850632 6.20341492 12.925513 6.2109375 14.03515625 C6.2390228 16.31185594 6.26768736 18.58854855 6.296875 20.86523438 C6.33801922 24.4572721 6.37490186 28.04917993 6.40136719 31.64135742 C6.42911493 35.10623663 6.47500634 38.57051241 6.5234375 42.03515625 C6.5283168 43.62941185 6.5283168 43.62941185 6.53329468 45.25587463 C6.6273389 51.01169563 7.23451312 55.78810039 9.36050415 61.15892029 C10 63 10 63 10 66 C5.75513537 64.48397692 4.17308022 61.83910839 2 58 C-0.6712998 51.17125473 -0.22377469 44.30724332 -0.125 37.0625 C-0.11597656 35.80630859 -0.10695313 34.55011719 -0.09765625 33.25585938 C-0.07419249 30.17037478 -0.04136201 27.08528795 0 24 C-1.26328125 24.13792969 -2.5265625 24.27585937 -3.828125 24.41796875 C-4.5387207 24.4955542 -5.24931641 24.57313965 -5.98144531 24.65307617 C-10.57972863 25.44337136 -14.15870915 28.42207819 -17 32 C-17.33498301 34.66834966 -17.33498301 34.66834966 -17 37 C-18.8125 37.6875 -18.8125 37.6875 -21 38 C-22.9581636 36.47698387 -23.89113011 35.21773977 -25 33 C-25.9075 33.474375 -26.815 33.94875 -27.75 34.4375 C-32.8121016 36.87120269 -36.60929923 37.11472871 -42.25 37.0625 C-43.51328125 37.05347656 -44.7765625 37.04445313 -46.078125 37.03515625 C-47.04234375 37.02355469 -48.0065625 37.01195312 -49 37 C-48.95875 38.258125 -48.9175 39.51625 -48.875 40.8125 C-48.90756636 47.68400131 -49.14814832 54.42798378 -53.25 60.125 C-56.40475683 62.27597057 -58.21237398 62.70230267 -62 63 C-69.90241599 61.0510606 -76.2682698 57.7317302 -82 52 C-82.61875 53.670625 -82.61875 53.670625 -83.25 55.375 C-84.25092751 57.6687922 -84.79522055 58.83178831 -86.75 60.4375 C-93.72086348 62.18021587 -99.14427742 60.20737887 -105.81640625 57.97265625 C-112.80365151 55.83790279 -116.37128889 56.09856104 -122.9375 58.9375 C-128.23106729 61.20904981 -132.20450683 62.37024663 -138 62 C-137 59 -137 59 -135.23413086 57.83325195 C-134.48526611 57.47191162 -133.73640137 57.11057129 -132.96484375 56.73828125 C-132.15595703 56.34189453 -131.34707031 55.94550781 -130.51367188 55.53710938 C-129.66353516 55.13298828 -128.81339844 54.72886719 -127.9375 54.3125 C-127.08349609 53.89677734 -126.22949219 53.48105469 -125.34960938 53.05273438 C-123.23726695 52.02606515 -121.12082567 51.00899792 -119 50 C-119.40992188 49.41992188 -119.81984375 48.83984375 -120.2421875 48.2421875 C-126.67351518 38.91830096 -128.29883114 31.31688513 -126.53515625 20.0234375 C-124.76666685 12.42625817 -121.61657632 7.80284665 -115.5 3.0625 C-112.22008314 1.66853533 -110.51570218 1.19431825 -107 2 C-102.34126983 6.95310048 -100.06030565 13.57507257 -99.96875 20.29296875 C-100.40396092 26.78849166 -102.61099327 30.79476302 -107.4375 35.25 C-109.90794744 36.93713484 -112.17834578 38.0325757 -115 39 C-114.72144443 42.24981496 -114.1109832 43.86037597 -112.0625 46.4375 C-106.29515117 51.26324086 -99.81542528 56.31261701 -92 56 C-89.35913629 54.12359684 -88.27221446 52.81664337 -87.25 49.75 C-87.1675 49.1725 -87.085 48.595 -87 48 C-85 47.125 -85 47.125 -82 47 C-80.30859375 48.1640625 -80.30859375 48.1640625 -78.4375 49.75 C-73.56745518 53.72952234 -68.18993745 55.21299367 -62 56 C-59.73404103 55.6445949 -59.73404103 55.6445949 -58 55 C-56.86519473 51.39006828 -56.89984233 48.0157673 -56.9375 44.25 C-56.958125 42.1875 -56.97875 40.125 -57 38 C-61.29 37.67 -65.58 37.34 -70 37 C-70.495 35.02 -70.495 35.02 -71 33 C-67.13758843 31.12397152 -65.1245202 30.96886995 -61 32 C-59.3337447 32.0370279 -57.66598681 32.04759962 -56 32 C-56.165 31.319375 -56.33 30.63875 -56.5 29.9375 C-57.07089059 26.5835178 -57.06659023 23.39610195 -57 20 C-57.90363281 20.2165625 -58.80726562 20.433125 -59.73828125 20.65625 C-60.91777344 20.9346875 -62.09726563 21.213125 -63.3125 21.5 C-64.48425781 21.7784375 -65.65601563 22.056875 -66.86328125 22.34375 C-70 23 -70 23 -73 23 C-73.36133603 16.61639676 -73.36133603 16.61639676 -71.9375 14.1875 C-66.44755716 10.82269632 -60.83711136 10.72835306 -54.625 11.1875 C-53.50726196 11.26206421 -53.50726196 11.26206421 -52.36694336 11.33813477 C-46.18171012 11.82866215 -39.58037872 12.41962128 -35 17 C-35.375 19.625 -35.375 19.625 -36 22 C-36.66 22 -37.32 22 -38 22 C-38.495 20.02 -38.495 20.02 -39 18 C-42.63 18.33 -46.26 18.66 -50 19 C-49.505 25.435 -49.505 25.435 -49 32 C-35.84960014 32.42881739 -26.38285225 31.72265973 -16.24609375 22.8671875 C-12.39898898 19.66907258 -8.4029573 18.41569105 -3.625 17 C-2.75875 16.67 -1.8925 16.34 -1 16 C0.14077657 12.57767028 0.09815117 9.91326783 0.0625 6.3125 C0.05347656 5.13300781 0.04445313 3.95351563 0.03515625 2.73828125 C0.02355469 1.83464844 0.01195312 0.93101562 0 0 Z M-112 8 C-116.67807494 11.22267385 -119.0141822 13.88456897 -120.609375 19.375 C-121.34038341 24.28737651 -120.68667038 29.11057595 -120 34 C-114.41737246 31.26341787 -110.93891241 28.54992963 -108 23 C-106.38435602 18.25404582 -107.35708372 15.13429779 -109.11328125 10.63671875 C-109.90003196 8.81106762 -109.90003196 8.81106762 -112 8 Z " fill="#79102C" transform="translate(1943,967)"/>
<path d="M0 0 C18.81 0 37.62 0 57 0 C57 6.27 57 12.54 57 19 C54.421875 19.020625 51.84375 19.04125 49.1875 19.0625 C47.97549927 19.07615601 47.97549927 19.07615601 46.73901367 19.09008789 C43.55618187 19.10246624 41.03943678 19.01314559 38 18 C38.03029297 19.02134033 38.06058594 20.04268066 38.09179688 21.0949707 C39.14800823 56.97905389 39.14800823 56.97905389 39 74 C32.07 74 25.14 74 18 74 C17.85951918 55.31605135 18.40478035 36.67185049 19 18 C18.12359863 18.24447876 18.12359863 18.24447876 17.22949219 18.49389648 C13.92071604 19.24500171 10.62261371 19.10362056 7.25 19.0625 C4.8575 19.041875 2.465 19.02125 0 19 C0 12.73 0 6.46 0 0 Z " fill="#79102C" transform="translate(1760,819)"/>
<path d="M0 0 C18.81 0 37.62 0 57 0 C57 6.27 57 12.54 57 19 C54.421875 19.020625 51.84375 19.04125 49.1875 19.0625 C47.97549927 19.07615601 47.97549927 19.07615601 46.73901367 19.09008789 C43.55618187 19.10246624 41.03943678 19.01314559 38 18 C38.03029297 19.02134033 38.06058594 20.04268066 38.09179688 21.0949707 C39.14800823 56.97905389 39.14800823 56.97905389 39 74 C32.07 74 25.14 74 18 74 C17.85951918 55.31605135 18.40478035 36.67185049 19 18 C18.12359863 18.24447876 18.12359863 18.24447876 17.22949219 18.49389648 C13.92071604 19.24500171 10.62261371 19.10362056 7.25 19.0625 C4.8575 19.041875 2.465 19.02125 0 19 C0 12.73 0 6.46 0 0 Z " fill="#79102C" transform="translate(1118,819)"/>
<path d="M0 0 C0.33808686 2.06172613 0.67027361 4.1244203 1 6.1875 C1.185625 7.33605469 1.37125 8.48460937 1.5625 9.66796875 C1.93489477 12.50415393 2.08596021 15.14719564 2 18 C1.16855469 18.12117187 0.33710937 18.24234375 -0.51953125 18.3671875 C-1.60621094 18.53476562 -2.69289063 18.70234375 -3.8125 18.875 C-4.89144531 19.03742187 -5.97039062 19.19984375 -7.08203125 19.3671875 C-10.17321793 19.85132338 -10.17321793 19.85132338 -13 22 C-12.89095373 23.90246138 -12.89095373 23.90246138 -12 26 C-9.6716188 27.76980516 -9.6716188 27.76980516 -6.8125 29.3125 C-1.29124398 32.64392106 3.0516334 36.10326681 6 42 C6.98226575 50.08264388 5.71658298 56.3347818 1 63 C-5.3921698 70.43578936 -14.31768543 75.27425913 -24 77 C-26.31 77 -28.62 77 -31 77 C-31.66 71.06 -32.32 65.12 -33 59 C-29.71223958 58.28385417 -26.42447917 57.56770833 -23.13671875 56.8515625 C-19.87079555 56.14304469 -19.87079555 56.14304469 -17 54 C-17.05674028 51.6506506 -17.05674028 51.6506506 -18 49 C-20.59817609 46.61138331 -20.59817609 46.61138331 -23.8125 44.5 C-28.86333129 41.00563682 -33.00585502 37.98243494 -35 32 C-35.88565389 24.53360134 -35.50619573 19.00917345 -30.828125 12.96484375 C-22.65649004 4.18208224 -11.91224329 -0.2290816 0 0 Z " fill="#79102C" transform="translate(1856,818)"/>
<path d="M0 0 C0.33808686 2.06172613 0.67027361 4.1244203 1 6.1875 C1.185625 7.33605469 1.37125 8.48460937 1.5625 9.66796875 C1.93489477 12.50415393 2.08596021 15.14719564 2 18 C1.16855469 18.12117187 0.33710937 18.24234375 -0.51953125 18.3671875 C-1.60621094 18.53476562 -2.69289063 18.70234375 -3.8125 18.875 C-4.89144531 19.03742187 -5.97039062 19.19984375 -7.08203125 19.3671875 C-10.17321793 19.85132338 -10.17321793 19.85132338 -13 22 C-12.89095373 23.90246138 -12.89095373 23.90246138 -12 26 C-9.6716188 27.76980516 -9.6716188 27.76980516 -6.8125 29.3125 C-1.29124398 32.64392106 3.0516334 36.10326681 6 42 C6.98226575 50.08264388 5.71658298 56.3347818 1 63 C-5.3921698 70.43578936 -14.31768543 75.27425913 -24 77 C-26.31 77 -28.62 77 -31 77 C-31.66 71.06 -32.32 65.12 -33 59 C-29.71223958 58.28385417 -26.42447917 57.56770833 -23.13671875 56.8515625 C-19.87079555 56.14304469 -19.87079555 56.14304469 -17 54 C-17.05674028 51.6506506 -17.05674028 51.6506506 -18 49 C-20.59817609 46.61138331 -20.59817609 46.61138331 -23.8125 44.5 C-28.86333129 41.00563682 -33.00585502 37.98243494 -35 32 C-35.88565389 24.53360134 -35.50619573 19.00917345 -30.828125 12.96484375 C-22.65649004 4.18208224 -11.91224329 -0.2290816 0 0 Z " fill="#79102C" transform="translate(1603,818)"/>
<path d="M0 0 C0.33808686 2.06172613 0.67027361 4.1244203 1 6.1875 C1.185625 7.33605469 1.37125 8.48460937 1.5625 9.66796875 C1.93489477 12.50415393 2.08596021 15.14719564 2 18 C1.16855469 18.12117187 0.33710937 18.24234375 -0.51953125 18.3671875 C-1.60621094 18.53476562 -2.69289063 18.70234375 -3.8125 18.875 C-4.89144531 19.03742187 -5.97039062 19.19984375 -7.08203125 19.3671875 C-10.17321793 19.85132338 -10.17321793 19.85132338 -13 22 C-12.89095373 23.90246138 -12.89095373 23.90246138 -12 26 C-9.6716188 27.76980516 -9.6716188 27.76980516 -6.8125 29.3125 C-1.29124398 32.64392106 3.0516334 36.10326681 6 42 C6.98226575 50.08264388 5.71658298 56.3347818 1 63 C-5.3921698 70.43578936 -14.31768543 75.27425913 -24 77 C-26.31 77 -28.62 77 -31 77 C-31.66 71.06 -32.32 65.12 -33 59 C-29.71223958 58.28385417 -26.42447917 57.56770833 -23.13671875 56.8515625 C-19.87079555 56.14304469 -19.87079555 56.14304469 -17 54 C-17.05674028 51.6506506 -17.05674028 51.6506506 -18 49 C-20.59817609 46.61138331 -20.59817609 46.61138331 -23.8125 44.5 C-28.86333129 41.00563682 -33.00585502 37.98243494 -35 32 C-35.88565389 24.53360134 -35.50619573 19.00917345 -30.828125 12.96484375 C-22.65649004 4.18208224 -11.91224329 -0.2290816 0 0 Z " fill="#79102C" transform="translate(1320,818)"/>
<path d="M0 0 C6.93 0 13.86 0 21 0 C21.10428791 18.36626047 21.02736212 36.65424779 20 55 C26.27 55 32.54 55 39 55 C39 61.6 39 68.2 39 75 C34.08864574 75.02297411 29.17747849 75.04288217 24.26611328 75.05493164 C22.59585945 75.05995569 20.92561001 75.06677605 19.25537109 75.07543945 C16.85252804 75.08758946 14.44974321 75.09324763 12.046875 75.09765625 C11.30193787 75.10281754 10.55700073 75.10797882 9.78948975 75.11329651 C6.27587781 75.1136754 3.43904937 74.85976234 0 74 C0 49.58 0 25.16 0 0 Z " fill="#79102C" transform="translate(1239,819)"/>
<path d="M0 0 C6.93 0 13.86 0 21 0 C21.10428791 18.36626047 21.02736212 36.65424779 20 55 C26.27 55 32.54 55 39 55 C39 61.6 39 68.2 39 75 C34.08864574 75.02297411 29.17747849 75.04288217 24.26611328 75.05493164 C22.59585945 75.05995569 20.92561001 75.06677605 19.25537109 75.07543945 C16.85252804 75.08758946 14.44974321 75.09324763 12.046875 75.09765625 C11.30193787 75.10281754 10.55700073 75.10797882 9.78948975 75.11329651 C6.27587781 75.1136754 3.43904937 74.85976234 0 74 C0 49.58 0 25.16 0 0 Z " fill="#79102C" transform="translate(837,819)"/>
<path d="M0 0 C6.93 0 13.86 0 21 0 C21 24.42 21 48.84 21 74 C14.07 74 7.14 74 0 74 C0 49.58 0 25.16 0 0 Z " fill="#79102C" transform="translate(797,819)"/>
<path d="M0 0 C25.35483871 0 25.35483871 0 33 4.9375 C36.58061858 8.63001291 37.30885912 11.64392405 37.375 16.75 C37.23866851 23.34202851 35.90719503 27.76141486 31.4921875 32.6796875 C22.26156499 41.30924622 12.41475829 42 0 42 C0 28.14 0 14.28 0 0 Z M13 10 C13 16.93 13 23.86 13 31 C20.63836296 27.94215966 20.63836296 27.94215966 23.0625 24.1875 C24.20004415 20.3198499 24.02625947 17.88512513 23 14 C22 12 22 12 20 11 C17.69 10.67 15.38 10.34 13 10 Z " fill="#79102C" transform="translate(1050,991)"/>
<path d="M0 0 C4.93613018 0.98722604 5.76231989 1.27796431 9.125 4.5 C14.22799552 9.25017458 19.5829538 13.61150688 25 18 C25.33 12.06 25.66 6.12 26 0 C29.63 0 33.26 0 37 0 C37.12875466 9.05574414 36.93949141 18.07649086 36.5625 27.125 C36.52326416 28.12023682 36.48402832 29.11547363 36.44360352 30.14086914 C36.40162842 31.08696045 36.35965332 32.03305176 36.31640625 33.0078125 C36.27974854 33.84973145 36.24309082 34.69165039 36.20532227 35.55908203 C35.99173332 38.09827616 35.54588715 40.51284157 35 43 C30.02965659 41.47500827 26.80225729 38.51290874 23 35.125 C21.79229549 34.06438771 20.58397333 33.00447826 19.375 31.9453125 C18.84648438 31.47625488 18.31796875 31.00719727 17.7734375 30.52392578 C15.5637524 28.62512975 13.27501469 26.82001175 11 25 C10.67 30.61 10.34 36.22 10 42 C6.04 42 2.08 42 -2 42 C-1.34 28.14 -0.68 14.28 0 0 Z " fill="#79102C" transform="translate(1004,991)"/>
<path d="M0 0 C4.62 0 9.24 0 14 0 C14.54270648 30.51216456 14.54270648 30.51216456 8 39 C2.64399813 43.44434198 -2.08306817 43.44170657 -8.9140625 43.43359375 C-14.21286799 42.68907804 -17.67101217 39.95954577 -20.94067383 35.76879883 C-25.02659419 28.94637591 -24.24467339 20.07358258 -24.125 12.4375 C-24.11597656 11.33341797 -24.10695313 10.22933594 -24.09765625 9.09179688 C-24.07430248 6.39443593 -24.03843974 3.69718814 -24 1 C-19.38 1 -14.76 1 -10 1 C-10.02320313 2.423125 -10.04640625 3.84625 -10.0703125 5.3125 C-10.08908307 7.20832805 -10.10728189 9.10416182 -10.125 11 C-10.14175781 11.93457031 -10.15851563 12.86914062 -10.17578125 13.83203125 C-10.21606145 19.59209963 -9.65416655 24.4774282 -8 30 C-4.52852158 30.74957157 -4.52852158 30.74957157 -1 31 C0.18135474 24.51650193 0.11322974 18.13785493 0.0625 11.5625 C0.05573242 9.8928418 0.05573242 9.8928418 0.04882812 8.18945312 C0.03711207 5.45961204 0.01917891 2.72979886 0 0 Z " fill="#79102C" transform="translate(1555,991)"/>
<path d="M0 0 C24.4 0 24.4 0 29.875 4.5625 C32.54516006 7.97437119 32.01573722 10.60970169 31.5234375 14.734375 C30.79878266 17.87094074 29.24814339 19.75185661 27 22 C28.81383392 26.11565361 31.55639566 28.88152733 34.63671875 32.09765625 C35.08660156 32.72542969 35.53648438 33.35320312 36 34 C34.87084496 37.38746512 33.77256927 38.37451366 31.125 40.6875 C30.42632813 41.31011719 29.72765625 41.93273438 29.0078125 42.57421875 C27 44 27 44 24 44 C21.70479139 41.17651607 20.04332808 37.9101101 18.25 34.75 C17.47076172 33.44095703 17.47076172 33.44095703 16.67578125 32.10546875 C16.18980469 31.26113281 15.70382812 30.41679688 15.203125 29.546875 C14.75614258 28.77182617 14.30916016 27.99677734 13.84863281 27.19824219 C12.85417221 24.62225735 12.97499596 23.53035044 14 21 C14.495 20.525625 14.99 20.05125 15.5 19.5625 C17.53433142 17.44340477 17.85459804 15.90803918 18 13 C16.18682851 10.46155991 15.01532925 10.00510975 12 9 C12.33 19.89 12.66 30.78 13 42 C8.71 42 4.42 42 0 42 C0 28.14 0 14.28 0 0 Z " fill="#79102C" transform="translate(1301,991)"/>
<path d="M0 0 C24.4 0 24.4 0 29.875 4.5625 C32.54516006 7.97437119 32.01573722 10.60970169 31.5234375 14.734375 C30.79878266 17.87094074 29.24814339 19.75185661 27 22 C28.81383392 26.11565361 31.55639566 28.88152733 34.63671875 32.09765625 C35.08660156 32.72542969 35.53648438 33.35320312 36 34 C34.87084496 37.38746512 33.77256927 38.37451366 31.125 40.6875 C30.42632813 41.31011719 29.72765625 41.93273438 29.0078125 42.57421875 C27 44 27 44 24 44 C21.70479139 41.17651607 20.04332808 37.9101101 18.25 34.75 C17.47076172 33.44095703 17.47076172 33.44095703 16.67578125 32.10546875 C16.18980469 31.26113281 15.70382812 30.41679688 15.203125 29.546875 C14.75614258 28.77182617 14.30916016 27.99677734 13.84863281 27.19824219 C12.85417221 24.62225735 12.97499596 23.53035044 14 21 C14.495 20.525625 14.99 20.05125 15.5 19.5625 C17.53433142 17.44340477 17.85459804 15.90803918 18 13 C16.18682851 10.46155991 15.01532925 10.00510975 12 9 C12.33 19.89 12.66 30.78 13 42 C8.71 42 4.42 42 0 42 C0 28.14 0 14.28 0 0 Z " fill="#79102C" transform="translate(1138,991)"/>
<path d="M0 0 C19 0 19 0 27 3 C30 6 30 6 30.4375 9.875 C30.30875009 13.97985009 28.92477319 16.07522681 26 19 C26.99 19.639375 27.98 20.27875 29 20.9375 C31.03188687 22.63154345 31.88887495 23.58195816 32.57421875 26.16015625 C32.7782537 30.37453336 32.42594957 32.42371529 29.875 35.875 C19.88279925 43.26053968 13.35512361 42 0 42 C0 28.14 0 14.28 0 0 Z M13 7 C13 9.97 13 12.94 13 16 C17.08785794 14.53489979 17.08785794 14.53489979 17.75 11.875 C17.8325 11.25625 17.915 10.6375 18 10 C16.35 9.01 14.7 8.02 13 7 Z M13 24 C13 27.3 13 30.6 13 34 C16.24983135 32.91215032 16.24983135 32.91215032 19 31 C19.2500773 28.54190002 19.2500773 28.54190002 19 26 C18.34 25.34 17.68 24.68 17 24 C15.68 24 14.36 24 13 24 Z " fill="#79102C" transform="translate(1683,991)"/>
<path d="M0 0 C19 0 19 0 27 3 C30 6 30 6 30.4375 9.875 C30.30875009 13.97985009 28.92477319 16.07522681 26 19 C26.99 19.639375 27.98 20.27875 29 20.9375 C31.03188687 22.63154345 31.88887495 23.58195816 32.57421875 26.16015625 C32.7782537 30.37453336 32.42594957 32.42371529 29.875 35.875 C19.88279925 43.26053968 13.35512361 42 0 42 C0 28.14 0 14.28 0 0 Z M13 7 C13 9.97 13 12.94 13 16 C17.08785794 14.53489979 17.08785794 14.53489979 17.75 11.875 C17.8325 11.25625 17.915 10.6375 18 10 C16.35 9.01 14.7 8.02 13 7 Z M13 24 C13 27.3 13 30.6 13 34 C16.24983135 32.91215032 16.24983135 32.91215032 19 31 C19.2500773 28.54190002 19.2500773 28.54190002 19 26 C18.34 25.34 17.68 24.68 17 24 C15.68 24 14.36 24 13 24 Z " fill="#79102C" transform="translate(1493,991)"/>
<path d="M0 0 C0.99 0 1.98 0 3 0 C3.35191406 0.65371582 3.70382812 1.30743164 4.06640625 1.98095703 C5.70912197 5.02995322 7.35467251 8.07741246 9 11.125 C9.5885376 12.2190918 10.1770752 13.31318359 10.78344727 14.44042969 C13.35236953 19.19766709 15.92107471 23.94063808 18.71484375 28.5703125 C19.09705078 29.20694824 19.47925781 29.84358398 19.87304688 30.49951172 C20.86944617 32.13808578 21.88521527 33.76483714 22.90234375 35.390625 C24 38 24 38 23.48046875 40.1875 C21.66733291 42.40727581 19.91899713 43.44165862 17.375 44.75 C16.55773438 45.17796875 15.74046875 45.6059375 14.8984375 46.046875 C14.27195312 46.36140625 13.64546875 46.6759375 13 47 C9 40.25 9 40.25 9 38 C-0.02860923 38.06403541 -0.02860923 38.06403541 -7.6640625 41.69140625 C-8.59222751 43.81210402 -8.59222751 43.81210402 -9 47 C-13.10958767 45.54955729 -16.43258745 43.48889248 -20 41 C-19.37180858 36.78319173 -17.92156362 33.46950585 -16.015625 29.66796875 C-15.71815369 29.07252762 -15.42068237 28.47708649 -15.11419678 27.86360168 C-14.4849347 26.60740988 -13.85273366 25.35268647 -13.21777344 24.09936523 C-12.26002391 22.20730254 -11.31290841 20.31020772 -10.3671875 18.41210938 C-3.79069753 5.28179358 -3.79069753 5.28179358 0 0 Z M0 21 C-1.25664978 23.90600261 -2 25.79604584 -2 29 C-0.35 29 1.3 29 3 29 C4.2077558 25.37673261 3.54311128 24.35853631 2 21 C1.34 21 0.68 21 0 21 Z " fill="#79102C" transform="translate(1108,988)"/>
<path d="M0 0 C0.66 3.96 1.32 7.92 2 12 C0.453125 12.556875 -1.09375 13.11375 -2.6875 13.6875 C-7.08052062 15.4546641 -10.0841561 17.14356129 -13 21 C-14.04238674 23.84919043 -14.20524904 25.28162835 -13.375 28.1875 C-11.57687243 30.55775907 -9.79407853 31.11765941 -7 32 C-7 28.7 -7 25.4 -7 22 C-3.04 22 0.92 22 5 22 C5 28.6 5 35.2 5 42 C1.79182025 43.60408988 -1.6667233 43.22619086 -5.1875 43.25 C-5.93064453 43.270625 -6.67378906 43.29125 -7.43945312 43.3125 C-14.82593838 43.36428955 -20.58531885 41.25997597 -26 36 C-28.79589228 30.22182263 -29.0830163 23.94135679 -27.3828125 17.75390625 C-23.55630917 9.06808233 -15.95190976 4.60064245 -7.61328125 0.84765625 C-5 0 -5 0 0 0 Z " fill="#79102C" transform="translate(955,991)"/>
<path d="M0 0 C1.07495117 2.04125977 1.07495117 2.04125977 2.04296875 4.69140625 C2.39423828 5.63564453 2.74550781 6.57988281 3.10742188 7.55273438 C3.64206055 9.04256836 3.64206055 9.04256836 4.1875 10.5625 C4.55552734 11.55958984 4.92355469 12.55667969 5.30273438 13.58398438 C6.21215495 16.05241165 7.11068563 18.52427273 8 21 C8.25692627 20.36908447 8.51385254 19.73816895 8.77856445 19.08813477 C9.94522479 16.24146255 11.1285934 13.40204032 12.3125 10.5625 C12.91868164 9.07266602 12.91868164 9.07266602 13.53710938 7.55273438 C13.93349609 6.60849609 14.32988281 5.66425781 14.73828125 4.69140625 C15.28029175 3.37958374 15.28029175 3.37958374 15.83325195 2.04125977 C17 0 17 0 20 -1 C22.48046875 0.21484375 22.48046875 0.21484375 25.1875 1.9375 C26.08855469 2.50339844 26.98960938 3.06929687 27.91796875 3.65234375 C28.60503906 4.09707031 29.29210938 4.54179688 30 5 C27.71481977 10.96708539 24.70005236 16.52828322 21.75 22.1875 C21.18925781 23.27353516 20.62851563 24.35957031 20.05078125 25.47851562 C17.37086465 30.63101116 14.64265155 35.75531597 11.765625 40.80078125 C11.30446289 41.61329346 10.84330078 42.42580566 10.36816406 43.26293945 C9.91666992 43.83616943 9.46517578 44.40939941 9 45 C8.01 45 7.02 45 6 45 C0.88641044 35.3706518 -4.19460719 25.72469198 -9.125 16 C-9.51486084 15.24154785 -9.90472168 14.4830957 -10.30639648 13.70166016 C-13 8.34866537 -13 8.34866537 -13 5 C-10.91796875 3.359375 -10.91796875 3.359375 -8.1875 1.75 C-7.29417969 1.20859375 -6.40085937 0.6671875 -5.48046875 0.109375 C-3 -1 -3 -1 0 0 Z " fill="#79102C" transform="translate(1350,990)"/>
<path d="M0 0 C0.84433594 0.00322266 1.68867187 0.00644531 2.55859375 0.00976562 C3.86763672 0.02233398 3.86763672 0.02233398 5.203125 0.03515625 C6.09128906 0.03966797 6.97945312 0.04417969 7.89453125 0.04882812 C10.08075816 0.06058203 12.26695028 0.07851659 14.453125 0.09765625 C14.453125 3.72765625 14.453125 7.35765625 14.453125 11.09765625 C10.823125 11.09765625 7.193125 11.09765625 3.453125 11.09765625 C3.453125 13.07765625 3.453125 15.05765625 3.453125 17.09765625 C6.753125 17.09765625 10.053125 17.09765625 13.453125 17.09765625 C13.453125 20.39765625 13.453125 23.69765625 13.453125 27.09765625 C10.153125 27.09765625 6.853125 27.09765625 3.453125 27.09765625 C3.453125 29.07765625 3.453125 31.05765625 3.453125 33.09765625 C7.413125 33.09765625 11.373125 33.09765625 15.453125 33.09765625 C15.453125 36.72765625 15.453125 40.35765625 15.453125 44.09765625 C11.64057877 44.12448417 7.82821888 44.14441102 4.015625 44.16015625 C2.92701172 44.16853516 1.83839844 44.17691406 0.71679688 44.18554688 C-0.31767578 44.18876953 -1.35214844 44.19199219 -2.41796875 44.1953125 C-3.37630615 44.20054932 -4.33464355 44.20578613 -5.32202148 44.21118164 C-7.546875 44.09765625 -7.546875 44.09765625 -8.546875 43.09765625 C-8.63561635 39.99514424 -8.66205955 36.91497505 -8.64453125 33.8125 C-8.6431163 32.88168106 -8.64170135 31.95086212 -8.64024353 30.99183655 C-8.63462672 28.00624434 -8.6220714 25.02072596 -8.609375 22.03515625 C-8.60436216 20.01627712 -8.59979888 17.99739682 -8.59570312 15.97851562 C-8.58465183 11.01820053 -8.56737595 6.05794093 -8.546875 1.09765625 C-5.59978359 0.31776395 -3.05482485 -0.02064071 0 0 Z " fill="#79102C" transform="translate(1452.546875,989.90234375)"/>
<path d="M0 0 C0.84433594 0.00322266 1.68867187 0.00644531 2.55859375 0.00976562 C3.86763672 0.02233398 3.86763672 0.02233398 5.203125 0.03515625 C6.09128906 0.03966797 6.97945312 0.04417969 7.89453125 0.04882812 C10.08075816 0.06058203 12.26695028 0.07851659 14.453125 0.09765625 C14.453125 3.72765625 14.453125 7.35765625 14.453125 11.09765625 C10.823125 11.09765625 7.193125 11.09765625 3.453125 11.09765625 C3.453125 13.07765625 3.453125 15.05765625 3.453125 17.09765625 C6.753125 17.09765625 10.053125 17.09765625 13.453125 17.09765625 C13.453125 20.39765625 13.453125 23.69765625 13.453125 27.09765625 C10.153125 27.09765625 6.853125 27.09765625 3.453125 27.09765625 C3.453125 29.07765625 3.453125 31.05765625 3.453125 33.09765625 C7.413125 33.09765625 11.373125 33.09765625 15.453125 33.09765625 C15.453125 36.72765625 15.453125 40.35765625 15.453125 44.09765625 C11.64057877 44.12448417 7.82821888 44.14441102 4.015625 44.16015625 C2.92701172 44.16853516 1.83839844 44.17691406 0.71679688 44.18554688 C-0.31767578 44.18876953 -1.35214844 44.19199219 -2.41796875 44.1953125 C-3.37630615 44.20054932 -4.33464355 44.20578613 -5.32202148 44.21118164 C-7.546875 44.09765625 -7.546875 44.09765625 -8.546875 43.09765625 C-8.63561635 39.99514424 -8.66205955 36.91497505 -8.64453125 33.8125 C-8.6431163 32.88168106 -8.64170135 31.95086212 -8.64024353 30.99183655 C-8.63462672 28.00624434 -8.6220714 25.02072596 -8.609375 22.03515625 C-8.60436216 20.01627712 -8.59979888 17.99739682 -8.59570312 15.97851562 C-8.58465183 11.01820053 -8.56737595 6.05794093 -8.546875 1.09765625 C-5.59978359 0.31776395 -3.05482485 -0.02064071 0 0 Z " fill="#79102C" transform="translate(1275.546875,989.90234375)"/>
<path d="M0 0 C0.84433594 0.00322266 1.68867187 0.00644531 2.55859375 0.00976562 C3.86763672 0.02233398 3.86763672 0.02233398 5.203125 0.03515625 C6.09128906 0.03966797 6.97945312 0.04417969 7.89453125 0.04882812 C10.08075816 0.06058203 12.26695028 0.07851659 14.453125 0.09765625 C14.453125 3.72765625 14.453125 7.35765625 14.453125 11.09765625 C10.823125 11.09765625 7.193125 11.09765625 3.453125 11.09765625 C3.453125 13.07765625 3.453125 15.05765625 3.453125 17.09765625 C6.753125 17.09765625 10.053125 17.09765625 13.453125 17.09765625 C13.453125 20.39765625 13.453125 23.69765625 13.453125 27.09765625 C10.153125 27.09765625 6.853125 27.09765625 3.453125 27.09765625 C3.453125 29.07765625 3.453125 31.05765625 3.453125 33.09765625 C7.413125 33.09765625 11.373125 33.09765625 15.453125 33.09765625 C15.453125 36.72765625 15.453125 40.35765625 15.453125 44.09765625 C11.64057877 44.12448417 7.82821888 44.14441102 4.015625 44.16015625 C2.92701172 44.16853516 1.83839844 44.17691406 0.71679688 44.18554688 C-0.31767578 44.18876953 -1.35214844 44.19199219 -2.41796875 44.1953125 C-3.37630615 44.20054932 -4.33464355 44.20578613 -5.32202148 44.21118164 C-7.546875 44.09765625 -7.546875 44.09765625 -8.546875 43.09765625 C-8.63561635 39.99514424 -8.66205955 36.91497505 -8.64453125 33.8125 C-8.6431163 32.88168106 -8.64170135 31.95086212 -8.64024353 30.99183655 C-8.63462672 28.00624434 -8.6220714 25.02072596 -8.609375 22.03515625 C-8.60436216 20.01627712 -8.59979888 17.99739682 -8.59570312 15.97851562 C-8.58465183 11.01820053 -8.56737595 6.05794093 -8.546875 1.09765625 C-5.59978359 0.31776395 -3.05482485 -0.02064071 0 0 Z " fill="#79102C" transform="translate(978.546875,989.90234375)"/>
<path d="M0 0 C0.84433594 0.00322266 1.68867187 0.00644531 2.55859375 0.00976562 C3.86763672 0.02233398 3.86763672 0.02233398 5.203125 0.03515625 C6.09128906 0.03966797 6.97945312 0.04417969 7.89453125 0.04882812 C10.08075816 0.06058203 12.26695028 0.07851659 14.453125 0.09765625 C14.453125 3.72765625 14.453125 7.35765625 14.453125 11.09765625 C10.823125 11.09765625 7.193125 11.09765625 3.453125 11.09765625 C3.453125 13.07765625 3.453125 15.05765625 3.453125 17.09765625 C6.753125 17.09765625 10.053125 17.09765625 13.453125 17.09765625 C13.453125 20.39765625 13.453125 23.69765625 13.453125 27.09765625 C10.153125 27.09765625 6.853125 27.09765625 3.453125 27.09765625 C3.453125 29.07765625 3.453125 31.05765625 3.453125 33.09765625 C7.413125 33.09765625 11.373125 33.09765625 15.453125 33.09765625 C15.453125 36.72765625 15.453125 40.35765625 15.453125 44.09765625 C11.64057877 44.12448417 7.82821888 44.14441102 4.015625 44.16015625 C2.92701172 44.16853516 1.83839844 44.17691406 0.71679688 44.18554688 C-0.31767578 44.18876953 -1.35214844 44.19199219 -2.41796875 44.1953125 C-3.37630615 44.20054932 -4.33464355 44.20578613 -5.32202148 44.21118164 C-7.546875 44.09765625 -7.546875 44.09765625 -8.546875 43.09765625 C-8.63561635 39.99514424 -8.66205955 36.91497505 -8.64453125 33.8125 C-8.6431163 32.88168106 -8.64170135 31.95086212 -8.64024353 30.99183655 C-8.63462672 28.00624434 -8.6220714 25.02072596 -8.609375 22.03515625 C-8.60436216 20.01627712 -8.59979888 17.99739682 -8.59570312 15.97851562 C-8.58465183 11.01820053 -8.56737595 6.05794093 -8.546875 1.09765625 C-5.59978359 0.31776395 -3.05482485 -0.02064071 0 0 Z " fill="#79102C" transform="translate(904.546875,989.90234375)"/>
<path d="M0 0 C4.62 0 9.24 0 14 0 C13.67 12.54 13.34 25.08 13 38 C17.29 38 21.58 38 26 38 C26 42.29 26 46.58 26 51 C22.04162186 51.02686682 18.08342438 51.04677414 14.125 51.0625 C12.43310547 51.07506836 12.43310547 51.07506836 10.70703125 51.08789062 C9.63066406 51.09111328 8.55429687 51.09433594 7.4453125 51.09765625 C6.45031738 51.10289307 5.45532227 51.10812988 4.43017578 51.11352539 C2 51 2 51 0 50 C0 33.5 0 17 0 0 Z " fill="#79102C" transform="translate(863,983)"/>
<path d="M0 0 C5.28554836 0.32033626 8.5274027 3.27017327 12 7 C13.9375 10.375 13.9375 10.375 15 13 C15.43570312 12.39671875 15.87140625 11.7934375 16.3203125 11.171875 C19.81247191 6.4854273 22.75386965 2.68135551 28 0 C29.32 0 30.64 0 32 0 C32.99 4.62 33.98 9.24 35 14 C33.741875 14.5775 32.48375 15.155 31.1875 15.75 C26.26735275 18.24912241 24.63593297 20.15914139 22.8125 25.4375 C21.48497545 31.21936313 21.8772124 37.10619497 22 43 C17.38 43 12.76 43 8 43 C7.97421875 41.865625 7.9484375 40.73125 7.921875 39.5625 C7.76628618 28.11119807 7.76628618 28.11119807 3 18 C0.71540343 16.29880899 -1.38932109 15.20492873 -4 14 C-3.52372025 12.04096255 -3.04388577 10.08278903 -2.5625 8.125 C-2.29566406 7.03445313 -2.02882813 5.94390625 -1.75390625 4.8203125 C-1 2 -1 2 0 0 Z " fill="#79102C" transform="translate(1722,990)"/>
<path d="M0 0 C5.28554836 0.32033626 8.5274027 3.27017327 12 7 C13.9375 10.375 13.9375 10.375 15 13 C15.43570312 12.39671875 15.87140625 11.7934375 16.3203125 11.171875 C19.81247191 6.4854273 22.75386965 2.68135551 28 0 C29.32 0 30.64 0 32 0 C32.99 4.62 33.98 9.24 35 14 C33.741875 14.5775 32.48375 15.155 31.1875 15.75 C26.26735275 18.24912241 24.63593297 20.15914139 22.8125 25.4375 C21.48497545 31.21936313 21.8772124 37.10619497 22 43 C17.38 43 12.76 43 8 43 C7.97421875 41.865625 7.9484375 40.73125 7.921875 39.5625 C7.76628618 28.11119807 7.76628618 28.11119807 3 18 C0.71540343 16.29880899 -1.38932109 15.20492873 -4 14 C-3.52372025 12.04096255 -3.04388577 10.08278903 -2.5625 8.125 C-2.29566406 7.03445313 -2.02882813 5.94390625 -1.75390625 4.8203125 C-1 2 -1 2 0 0 Z " fill="#79102C" transform="translate(1179,990)"/>
<path d="M0 0 C11.55 0 23.1 0 35 0 C35 3.96 35 7.92 35 12 C31.37 12 27.74 12 24 12 C24 21.9 24 31.8 24 42 C19.71 42 15.42 42 11 42 C11 32.1 11 22.2 11 12 C7.37 12 3.74 12 0 12 C0 8.04 0 4.08 0 0 Z " fill="#79102C" transform="translate(1628,991)"/>
<path d="M0 0 C2.6953125 -0.375 2.6953125 -0.375 6 0 C8.00096239 2.00723499 9.35280424 3.66768333 10.875 6 C11.29990723 6.62430908 11.72481445 7.24861816 12.16259766 7.8918457 C20.75455871 20.86008599 29.76853976 37.03999093 29 53 C28.34 53.66 27.68 54.32 27 55 C23.375 54.625 23.375 54.625 20 54 C20.226875 52.72125 20.45375 51.4425 20.6875 50.125 C21.71646941 40.45571396 17.15842433 32.84614704 12 25 C9.03189931 26.32919292 6.99436211 27.77862143 4.75 30.125 C3.8425 31.07375 2.935 32.0225 2 33 C2.68054376 36.00726269 2.68054376 36.00726269 4.625 37.1875 C6 39 6 39 6.0625 42.875 C5.46633919 46.35580992 4.88194984 47.13210375 2.375 49.9375 C-1.34692715 52.21201104 -3.63921327 53.08075531 -8 53 C-10.74412358 51.12244176 -11.75522691 49.8136688 -12.7109375 46.63671875 C-13.25281419 41.6939246 -10.65636589 38.0263156 -8 34 C-5.79569112 31.31079457 -3.43768636 28.77568735 -1.01074219 26.28686523 C2.14396414 23.04625246 4.60554626 19.80858996 7 16 C6.4946875 15.09636719 5.989375 14.19273437 5.46875 13.26171875 C4.8121697 12.07049449 4.15593782 10.87907815 3.5 9.6875 C3.16613281 9.09259766 2.83226562 8.49769531 2.48828125 7.88476562 C0.93174886 5.04171156 0 3.29339012 0 0 Z M-5.6875 40.1875 C-7.40364695 42.55741722 -7.23187108 44.14025666 -7 47 C-4.56282742 46.72965366 -4.56282742 46.72965366 -2 46 C0.30671915 43.28450846 0.30671915 43.28450846 -0.375 40.8125 C-0.58125 40.214375 -0.7875 39.61625 -1 39 C-3.93500458 38.7122533 -3.93500458 38.7122533 -5.6875 40.1875 Z " fill="#79102C" transform="translate(1972,972)"/>
<path d="M0 0 C1.30492469 4.15944744 2.12019705 7.65036909 2 12 C1.31292969 12.24234375 0.62585937 12.4846875 -0.08203125 12.734375 C-0.98308594 13.06953125 -1.88414063 13.4046875 -2.8125 13.75 C-4.15248047 14.23726562 -4.15248047 14.23726562 -5.51953125 14.734375 C-9.09527102 16.55884694 -10.50197374 18.78606099 -12 22.4375 C-12.23502967 25.19233294 -12.23502967 25.19233294 -10.1875 27.75 C-5.72891254 30.8972382 -2.4145671 30.78341732 3 31 C3.33 34.96 3.66 38.92 4 43 C-14.45369122 43.87527389 -14.45369122 43.87527389 -21.58203125 37.609375 C-25.64741248 33.1573725 -27.06679956 29.07078622 -26.875 23.125 C-25.68085214 16.0143923 -22.58035495 10.77961265 -16.9375 6.31640625 C-11.70862652 2.76372406 -6.39311298 0 0 0 Z " fill="#79102C" transform="translate(1432,991)"/>
<path d="M0 0 C2.26706067 2.26706067 1.74409224 8.11189811 2 11 C-1.3 11.66 -4.6 12.32 -8 13 C-8 13.66 -8 14.32 -8 15 C-7.38511719 15.31453125 -6.77023437 15.6290625 -6.13671875 15.953125 C-5.32847656 16.38109375 -4.52023437 16.8090625 -3.6875 17.25 C-2.88699219 17.66765625 -2.08648438 18.0853125 -1.26171875 18.515625 C1.82487528 20.54136892 3.60247261 22.4675031 4.5390625 26.078125 C4.72402353 30.75259466 4.0638509 33.60428012 1.125 37.3125 C-3.82080168 42.32838389 -10.03583091 45.19259782 -17.125 45.25 C-18.07375 45.1675 -19.0225 45.085 -20 45 C-20.33 41.37 -20.66 37.74 -21 34 C-17.7 33.34 -14.4 32.68 -11 32 C-11 31.01 -11 30.02 -11 29 C-12.93215707 27.40973863 -12.93215707 27.40973863 -15.375 26 C-18.50518933 24.09207508 -19.92375324 23.11437014 -22 20 C-22.86489103 15.22033902 -22.52114492 11.86314628 -20 7.6875 C-14.76745211 2.32078421 -7.41797073 -0.40097139 0 0 Z " fill="#79102C" transform="translate(1255,989)"/>
<path d="M0 0 C4.62 0 9.24 0 14 0 C13.67 10.23 13.34 20.46 13 31 C16.96 31 20.92 31 25 31 C25 34.96 25 38.92 25 43 C21.20828653 43.02687041 17.41676177 43.04677587 13.625 43.0625 C12.54476563 43.07087891 11.46453125 43.07925781 10.3515625 43.08789062 C9.3203125 43.09111328 8.2890625 43.09433594 7.2265625 43.09765625 C6.27346191 43.10289307 5.32036133 43.10812988 4.33837891 43.11352539 C2 43 2 43 0 42 C0 28.14 0 14.28 0 0 Z " fill="#79102C" transform="translate(1603,991)"/>
<path d="M0 0 C4.29 0 8.58 0 13 0 C13 13.86 13 27.72 13 42 C8.71 42 4.42 42 0 42 C0 28.14 0 14.28 0 0 Z " fill="#79102C" transform="translate(1578,991)"/>
<path d="M0 0 C4.29 0 8.58 0 13 0 C13 13.86 13 27.72 13 42 C8.71 42 4.42 42 0 42 C0 28.14 0 14.28 0 0 Z " fill="#79102C" transform="translate(1385,991)"/>
<path d="M0 0 C2.89301213 1.88382185 3.4851408 2.62057195 4.6875 5.75 C5.37878923 11.07131939 5.31915723 15.46412636 2.9375 20.3125 C0.32860899 23.1387986 -1.64508724 24.48927728 -5.4609375 25.0859375 C-10.87607697 25.18093995 -14.17035235 24.58906368 -18.3125 20.75 C-20.78104907 16.0275583 -20.56236879 11.79113746 -19.3125 6.75 C-17.84884102 3.28343925 -16.71300249 2.01396755 -13.5625 -0.0625 C-8.56135756 -1.88984051 -4.98244137 -1.88016655 0 0 Z M-9.3125 5.75 C-11.77574069 9.44486103 -11.70241688 11.38293092 -11.3125 15.75 C-9.95820159 17.69369738 -9.95820159 17.69369738 -8.3125 18.75 C-5.19052522 17.4410428 -5.19052522 17.4410428 -3.3125 14.75 C-3.05389865 10.69857881 -3.00808446 9.20662331 -5.3125 5.75 C-6.6325 5.75 -7.9525 5.75 -9.3125 5.75 Z " fill="#79102C" transform="translate(1914.3125,1040.25)"/>
<path d="M0 0 C1.875 1.5625 1.875 1.5625 3 3 C2.69964844 3.54140625 2.39929687 4.0828125 2.08984375 4.640625 C0.85013431 7.32444041 0.21056866 9.86481296 -0.4375 12.75 C-0.69660156 13.89082031 -0.95570312 15.03164063 -1.22265625 16.20703125 C-1.769599 18.87578207 -2.25866305 21.51210255 -2.68359375 24.19921875 C-2.79968994 24.90401367 -2.91578613 25.60880859 -3.03540039 26.33496094 C-3.35997498 28.34447664 -3.66103498 30.35774815 -3.9609375 32.37109375 C-5.24894691 36.8694424 -6.63100953 38.78504892 -10 42 C-11.32 42 -12.64 42 -14 42 C-13.72078898 37.47830763 -13.42442312 32.95789536 -13.125 28.4375 C-13.04636719 27.16068359 -12.96773437 25.88386719 -12.88671875 24.56835938 C-12.47406401 18.45789499 -12.07072069 12.78583724 -10 7 C-10.66 7 -11.32 7 -12 7 C-11.72776186 3.64239623 -11.41629629 2.35682539 -8.8125 0.125 C-5.33681032 -1.26527587 -3.55736159 -1.08267527 0 0 Z " fill="#79102C" transform="translate(2031,971)"/>
<path d="M0 0 C12 0 12 0 17 3 C17.3125 6 17.3125 6 17 9 C17 9.99 17 10.98 17 12 C17.33 12.33 17.66 12.66 18 13 C18.375 16.3125 18.375 16.3125 18 20 C14.98141336 23.27732263 12.39898538 24.59079206 8 25 C5.36 25 2.72 25 0 25 C0 16.75 0 8.5 0 0 Z M7 5 C7 6.32 7 7.64 7 9 C7.66 9 8.32 9 9 9 C9.33 8.01 9.66 7.02 10 6 C9.01 5.67 8.02 5.34 7 5 Z M7 14 C7 15.65 7 17.3 7 19 C7.99 18.67 8.98 18.34 10 18 C9.67 16.68 9.34 15.36 9 14 C8.34 14 7.68 14 7 14 Z " fill="#79102C" transform="translate(1968,1040)"/>
<path d="M0 0 C12.1961174 -0.49277242 12.1961174 -0.49277242 15.88671875 1.76953125 C18 4 18 4 18.625 7.9375 C18.41066257 11.3227706 17.96750031 12.04152738 15.75 14.875 C13 17 13 17 10.75 17.9375 C10.1725 18.288125 9.595 18.63875 9 19 C8.18415432 22.05908413 8.18415432 22.05908413 8 25 C5.36 25 2.72 25 0 25 C0 16.75 0 8.5 0 0 Z M7 6 C7 8.31 7 10.62 7 13 C7.99 12.34 8.98 11.68 10 11 C9.67 9.35 9.34 7.7 9 6 C8.34 6 7.68 6 7 6 Z " fill="#79102C" transform="translate(1875,1040)"/>
<path d="M0 0 C1.8253125 0.0309375 1.8253125 0.0309375 3.6875 0.0625 C3.6875 2.3725 3.6875 4.6825 3.6875 7.0625 C1.7075 7.0625 -0.2725 7.0625 -2.3125 7.0625 C-2.3125 8.0525 -2.3125 9.0425 -2.3125 10.0625 C-1.508125 10.041875 -0.70375 10.02125 0.125 10 C2.6875 10.0625 2.6875 10.0625 3.6875 11.0625 C3.72813832 12.72867115 3.730221 14.39638095 3.6875 16.0625 C1.7075 16.0625 -0.2725 16.0625 -2.3125 16.0625 C-2.3125 17.0525 -2.3125 18.0425 -2.3125 19.0625 C-0.0025 19.0625 2.3075 19.0625 4.6875 19.0625 C4.6875 21.3725 4.6875 23.6825 4.6875 26.0625 C0.0675 26.0625 -4.5525 26.0625 -9.3125 26.0625 C-9.3125 17.8125 -9.3125 9.5625 -9.3125 1.0625 C-5.83919872 0.36783974 -3.39947137 -0.05761816 0 0 Z " fill="#79102C" transform="translate(2016.3125,1038.9375)"/>
<path d="M0 0 C6.6 0 13.2 0 20 0 C20 2.31 20 4.62 20 7 C18.02 7 16.04 7 14 7 C14 12.94 14 18.88 14 25 C11.36 25 8.72 25 6 25 C6 19.06 6 13.12 6 7 C4.02 7 2.04 7 0 7 C0 4.69 0 2.38 0 0 Z " fill="#79102C" transform="translate(1820,1040)"/>
<path d="M0 0 C0.33 2.31 0.66 4.62 1 7 C-0.65 7.33 -2.3 7.66 -4 8 C-3.195625 8.515625 -2.39125 9.03125 -1.5625 9.5625 C1 12 1 12 2.0625 15.4375 C2 19 2 19 0.375 21.8125 C-2.90548076 24.83399544 -5.36149692 25.92717764 -9.8125 26.125 C-10.534375 26.08375 -11.25625 26.0425 -12 26 C-12.33 23.69 -12.66 21.38 -13 19 C-11.35 18.67 -9.7 18.34 -8 18 C-8.66708984 17.34644531 -8.66708984 17.34644531 -9.34765625 16.6796875 C-13.95086416 11.83530924 -13.95086416 11.83530924 -14.1875 7.8125 C-12.72566485 4.35025886 -11.138416 3.01755314 -8 1 C-5.07175348 0.02391783 -3.04386724 -0.08226668 0 0 Z " fill="#79102C" transform="translate(1862,1039)"/>
<path d="M0 0 C0.33 2.31 0.66 4.62 1 7 C-0.65 7.33 -2.3 7.66 -4 8 C-3.01 8.70125 -2.02 9.4025 -1 10.125 C1.46847194 12.19570869 1.93900144 12.70720691 2.625 16 C1.85304717 19.70537357 0.70500123 21.36810691 -2 24 C-5.4274141 25.84553067 -8.13505158 26.2208542 -12 26 C-12.33 23.69 -12.66 21.38 -13 19 C-11.02 18.67 -9.04 18.34 -7 18 C-7.804375 17.360625 -8.60875 16.72125 -9.4375 16.0625 C-12 14 -12 14 -13 13 C-13.28802691 10.07172641 -13.50415371 7.84763742 -13 5 C-9.06431495 0.85157522 -5.59121511 -0.15111392 0 0 Z " fill="#79102C" transform="translate(1934,1039)"/>
<path d="M0 0 C0.33 2.31 0.66 4.62 1 7 C-0.65 7.33 -2.3 7.66 -4 8 C-3.01 8.680625 -2.02 9.36125 -1 10.0625 C1.73674209 12.34528014 1.96732814 12.81377042 2.625 16.5625 C1.9089324 20.50087179 1.15901498 21.63073876 -2 24 C-5.3255844 26.21705627 -8.05907441 26.17913298 -12 26 C-12 23.69 -12 21.38 -12 19 C-10.35 18.67 -8.7 18.34 -7 18 C-7.804375 17.38125 -8.60875 16.7625 -9.4375 16.125 C-12.40271019 13.66604521 -12.85491032 12.93271935 -13.4375 9.1875 C-13 6 -13 6 -10.1875 3.1875 C-6.33811333 0.54576405 -4.68313805 0 0 0 Z " fill="#79102C" transform="translate(1950,1039)"/>
<path d="M0 0 C2.97 0 5.94 0 9 0 C9 5.61 9 11.22 9 17 C10.98 17 12.96 17 15 17 C15 19.64 15 22.28 15 25 C10.05 25 5.1 25 0 25 C0 16.75 0 8.5 0 0 Z " fill="#79102C" transform="translate(1989,1040)"/>
<path d="M0 0 C4.76838983 3.09300962 6.81039493 6.5369675 8 12 C8.92234396 19.52497694 7.96746718 26.43653577 4 33 C1.859375 34.78125 1.859375 34.78125 0 36 C-1.625 34.3125 -1.625 34.3125 -3 32 C-2.3125 29.875 -2.3125 29.875 -1 27 C1.2897662 19.66760262 0.88124168 15.01875936 -2 8 C-2.6953125 5.8828125 -2.6953125 5.8828125 -3 4 C-1.5625 1.75 -1.5625 1.75 0 0 Z " fill="#79102C" transform="translate(2026,1032)"/>
<path d="M0 0 C1.32 0.99 2.64 1.98 4 3 C3.51614749 5.74183087 2.9240839 8.20095439 1.9375 10.8125 C0.13291054 16.94810415 0.36377453 21.07732596 3.1875 26.6875 C4.30859375 28.9453125 4.30859375 28.9453125 5 31 C3.75 34.0625 3.75 34.0625 2 36 C-1.79947105 34.36367318 -3.47975689 32.49721502 -5.23046875 28.66796875 C-7.49179708 20.82793196 -7.18264498 12.44947939 -3.5625 5.125 C-1.41176471 1.41176471 -1.41176471 1.41176471 0 0 Z " fill="#79102C" transform="translate(1802,1032)"/>
<path d="M0 0 C2.64 0 5.28 0 8 0 C8 8.25 8 16.5 8 25 C5.36 25 2.72 25 0 25 C0 16.75 0 8.5 0 0 Z " fill="#79102C" transform="translate(1955,1040)"/>
<path d="M0 0 C2.64 0 5.28 0 8 0 C8 8.25 8 16.5 8 25 C5.36 25 2.72 25 0 25 C0 16.75 0 8.5 0 0 Z " fill="#79102C" transform="translate(1810,1040)"/>
<path d="M0 0 C1.4540625 0.0309375 1.4540625 0.0309375 2.9375 0.0625 C0.73873675 12.56073322 0.73873675 12.56073322 -3.0625 17.0625 C-5.69921875 17.78125 -5.69921875 17.78125 -8.0625 18.0625 C-7.42102041 15.24894068 -6.77454485 12.43669761 -6.125 9.625 C-5.94259766 8.82255859 -5.76019531 8.02011719 -5.57226562 7.19335938 C-3.92149309 0.08003047 -3.92149309 0.08003047 0 0 Z " fill="#79102C" transform="translate(2059.0625,948.9375)"/>
<path d="M0 0 C1.65 0 3.3 0 5 0 C3.68 5.61 2.36 11.22 1 17 C-1.31 17.33 -3.62 17.66 -6 18 C-4.83805848 11.53287812 -2.8751252 5.90377651 0 0 Z " fill="#79102C" transform="translate(1792,949)"/>
<path d="M0 0 C1.98 0 3.96 0 6 0 C5.48969179 5.86854438 4.25204035 12.00716158 1 17 C-1.640625 17.7890625 -1.640625 17.7890625 -4 18 C-2.9611908 11.8887076 -1.84269722 5.92295536 0 0 Z " fill="#79102C" transform="translate(2046,949)"/>
<path d="M0 0 C1.32 0 2.64 0 4 0 C3.86722656 0.72445312 3.73445313 1.44890625 3.59765625 2.1953125 C2.69718291 7.12491105 1.80218034 12.05322123 1 17 C-1.31 17.33 -3.62 17.66 -6 18 C-5.61330541 11.03949747 -3.36561591 6.0605925 0 0 Z " fill="#79102C" transform="translate(1802,949)"/>
<path d="M0 0 C5.26053037 -0.31563182 8.44573816 0.33409063 13 3 C13 5.64 13 8.28 13 11 C8.85185185 12.38271605 8.85185185 12.38271605 6 11 C4.00482363 8.2830192 2 5.45841114 2 2 C1.34 2 0.68 2 0 2 C0 1.34 0 0.68 0 0 Z " fill="#79102C" transform="translate(2010,1014)"/>
<path d="M0 0 C2.475 0.99 2.475 0.99 5 2 C4.5504955 3.31554985 4.09010284 4.62738358 3.625 5.9375 C3.36976562 6.66839844 3.11453125 7.39929687 2.8515625 8.15234375 C2 10 2 10 0 11 C-0.66 10.67 -1.32 10.34 -2 10 C-1.85950482 8.52031676 -1.71245174 7.04125484 -1.5625 5.5625 C-1.48128906 4.73878906 -1.40007812 3.91507813 -1.31640625 3.06640625 C-1 1 -1 1 0 0 Z " fill="#79102C" transform="translate(1844,1035)"/>
</svg>
